<mxfile host="app.diagrams.net" modified="2023-05-01T13:35:24.953Z" agent="Mozilla/5.0 (Windows NT 10.0; Win64; x64) AppleWebKit/537.36 (KHTML, like Gecko) Chrome/112.0.0.0 Safari/537.36 Edg/112.0.1722.58" etag="KMKhTz9ANJiAf-z_3KPv" version="21.1.8" type="github">
  <diagram id="R2lEEEUBdFMjLlhIrx00" name="Page-1">
    <mxGraphModel dx="1912" dy="1008" grid="1" gridSize="10" guides="1" tooltips="1" connect="1" arrows="1" fold="1" page="1" pageScale="1" pageWidth="1169" pageHeight="827" math="0" shadow="0" extFonts="Permanent Marker^https://fonts.googleapis.com/css?family=Permanent+Marker">
      <root>
        <mxCell id="0" />
        <mxCell id="1" parent="0" />
        <mxCell id="LtpuGzz3zb0LntHNwfvB-28" style="edgeStyle=orthogonalEdgeStyle;rounded=0;orthogonalLoop=1;jettySize=auto;html=1;startArrow=block;startFill=1;endArrow=block;endFill=1;" parent="1" source="LtpuGzz3zb0LntHNwfvB-1" target="LtpuGzz3zb0LntHNwfvB-23" edge="1">
          <mxGeometry relative="1" as="geometry">
            <Array as="points">
              <mxPoint x="260" y="110" />
              <mxPoint x="260" y="110" />
            </Array>
          </mxGeometry>
        </mxCell>
        <mxCell id="LtpuGzz3zb0LntHNwfvB-29" value="Interagerer" style="edgeLabel;html=1;align=center;verticalAlign=middle;resizable=0;points=[];" parent="LtpuGzz3zb0LntHNwfvB-28" vertex="1" connectable="0">
          <mxGeometry x="0.256" y="-2" relative="1" as="geometry">
            <mxPoint x="-12" y="-12" as="offset" />
          </mxGeometry>
        </mxCell>
        <mxCell id="LtpuGzz3zb0LntHNwfvB-48" value="0..*" style="edgeLabel;html=1;align=center;verticalAlign=middle;resizable=0;points=[];" parent="LtpuGzz3zb0LntHNwfvB-28" vertex="1" connectable="0">
          <mxGeometry x="-0.7191" y="2" relative="1" as="geometry">
            <mxPoint as="offset" />
          </mxGeometry>
        </mxCell>
        <mxCell id="LtpuGzz3zb0LntHNwfvB-49" value="0..*" style="edgeLabel;html=1;align=center;verticalAlign=middle;resizable=0;points=[];" parent="LtpuGzz3zb0LntHNwfvB-28" vertex="1" connectable="0">
          <mxGeometry x="0.5984" y="2" relative="1" as="geometry">
            <mxPoint x="8" y="2" as="offset" />
          </mxGeometry>
        </mxCell>
        <mxCell id="LtpuGzz3zb0LntHNwfvB-1" value="Personale" style="swimlane;fontStyle=0;childLayout=stackLayout;horizontal=1;startSize=30;horizontalStack=0;resizeParent=1;resizeParentMax=0;resizeLast=0;collapsible=1;marginBottom=0;whiteSpace=wrap;html=1;" parent="1" vertex="1">
          <mxGeometry x="30" y="90" width="140" height="150" as="geometry" />
        </mxCell>
        <mxCell id="LtpuGzz3zb0LntHNwfvB-2" value="Navn" style="text;strokeColor=none;fillColor=none;align=left;verticalAlign=middle;spacingLeft=4;spacingRight=4;overflow=hidden;points=[[0,0.5],[1,0.5]];portConstraint=eastwest;rotatable=0;whiteSpace=wrap;html=1;" parent="LtpuGzz3zb0LntHNwfvB-1" vertex="1">
          <mxGeometry y="30" width="140" height="30" as="geometry" />
        </mxCell>
        <mxCell id="LtpuGzz3zb0LntHNwfvB-54" value="Profil" style="text;strokeColor=none;fillColor=none;align=left;verticalAlign=middle;spacingLeft=4;spacingRight=4;overflow=hidden;points=[[0,0.5],[1,0.5]];portConstraint=eastwest;rotatable=0;whiteSpace=wrap;html=1;" parent="LtpuGzz3zb0LntHNwfvB-1" vertex="1">
          <mxGeometry y="60" width="140" height="30" as="geometry" />
        </mxCell>
        <mxCell id="LtpuGzz3zb0LntHNwfvB-66" value="Email-adresse" style="text;strokeColor=none;fillColor=none;align=left;verticalAlign=middle;spacingLeft=4;spacingRight=4;overflow=hidden;points=[[0,0.5],[1,0.5]];portConstraint=eastwest;rotatable=0;whiteSpace=wrap;html=1;" parent="LtpuGzz3zb0LntHNwfvB-1" vertex="1">
          <mxGeometry y="90" width="140" height="30" as="geometry" />
        </mxCell>
        <mxCell id="LtpuGzz3zb0LntHNwfvB-67" value="Telefonnummer" style="text;strokeColor=none;fillColor=none;align=left;verticalAlign=middle;spacingLeft=4;spacingRight=4;overflow=hidden;points=[[0,0.5],[1,0.5]];portConstraint=eastwest;rotatable=0;whiteSpace=wrap;html=1;" parent="LtpuGzz3zb0LntHNwfvB-1" vertex="1">
          <mxGeometry y="120" width="140" height="30" as="geometry" />
        </mxCell>
        <mxCell id="LtpuGzz3zb0LntHNwfvB-6" value="Profil" style="swimlane;fontStyle=0;childLayout=stackLayout;horizontal=1;startSize=30;horizontalStack=0;resizeParent=1;resizeParentMax=0;resizeLast=0;collapsible=1;marginBottom=0;whiteSpace=wrap;html=1;" parent="1" vertex="1">
          <mxGeometry x="250" y="250" width="140" height="300" as="geometry" />
        </mxCell>
        <mxCell id="LtpuGzz3zb0LntHNwfvB-7" value="Skyttenummer" style="text;strokeColor=none;fillColor=none;align=left;verticalAlign=middle;spacingLeft=4;spacingRight=4;overflow=hidden;points=[[0,0.5],[1,0.5]];portConstraint=eastwest;rotatable=0;whiteSpace=wrap;html=1;" parent="LtpuGzz3zb0LntHNwfvB-6" vertex="1">
          <mxGeometry y="30" width="140" height="30" as="geometry" />
        </mxCell>
        <mxCell id="LtpuGzz3zb0LntHNwfvB-8" value="Navn" style="text;strokeColor=none;fillColor=none;align=left;verticalAlign=middle;spacingLeft=4;spacingRight=4;overflow=hidden;points=[[0,0.5],[1,0.5]];portConstraint=eastwest;rotatable=0;whiteSpace=wrap;html=1;" parent="LtpuGzz3zb0LntHNwfvB-6" vertex="1">
          <mxGeometry y="60" width="140" height="30" as="geometry" />
        </mxCell>
        <mxCell id="LtpuGzz3zb0LntHNwfvB-9" value="Adresse" style="text;strokeColor=none;fillColor=none;align=left;verticalAlign=middle;spacingLeft=4;spacingRight=4;overflow=hidden;points=[[0,0.5],[1,0.5]];portConstraint=eastwest;rotatable=0;whiteSpace=wrap;html=1;" parent="LtpuGzz3zb0LntHNwfvB-6" vertex="1">
          <mxGeometry y="90" width="140" height="30" as="geometry" />
        </mxCell>
        <mxCell id="LtpuGzz3zb0LntHNwfvB-30" value="Fødelsdato" style="text;strokeColor=none;fillColor=none;align=left;verticalAlign=middle;spacingLeft=4;spacingRight=4;overflow=hidden;points=[[0,0.5],[1,0.5]];portConstraint=eastwest;rotatable=0;whiteSpace=wrap;html=1;" parent="LtpuGzz3zb0LntHNwfvB-6" vertex="1">
          <mxGeometry y="120" width="140" height="30" as="geometry" />
        </mxCell>
        <mxCell id="LtpuGzz3zb0LntHNwfvB-37" value="ID" style="text;strokeColor=none;fillColor=none;align=left;verticalAlign=middle;spacingLeft=4;spacingRight=4;overflow=hidden;points=[[0,0.5],[1,0.5]];portConstraint=eastwest;rotatable=0;whiteSpace=wrap;html=1;" parent="LtpuGzz3zb0LntHNwfvB-6" vertex="1">
          <mxGeometry y="150" width="140" height="30" as="geometry" />
        </mxCell>
        <mxCell id="LtpuGzz3zb0LntHNwfvB-52" value="Type" style="text;strokeColor=none;fillColor=none;align=left;verticalAlign=middle;spacingLeft=4;spacingRight=4;overflow=hidden;points=[[0,0.5],[1,0.5]];portConstraint=eastwest;rotatable=0;whiteSpace=wrap;html=1;" parent="LtpuGzz3zb0LntHNwfvB-6" vertex="1">
          <mxGeometry y="180" width="140" height="30" as="geometry" />
        </mxCell>
        <mxCell id="LtpuGzz3zb0LntHNwfvB-53" value="Rettigheder" style="text;strokeColor=none;fillColor=none;align=left;verticalAlign=middle;spacingLeft=4;spacingRight=4;overflow=hidden;points=[[0,0.5],[1,0.5]];portConstraint=eastwest;rotatable=0;whiteSpace=wrap;html=1;" parent="LtpuGzz3zb0LntHNwfvB-6" vertex="1">
          <mxGeometry y="210" width="140" height="30" as="geometry" />
        </mxCell>
        <mxCell id="LtpuGzz3zb0LntHNwfvB-68" value="Email-adresse" style="text;strokeColor=none;fillColor=none;align=left;verticalAlign=middle;spacingLeft=4;spacingRight=4;overflow=hidden;points=[[0,0.5],[1,0.5]];portConstraint=eastwest;rotatable=0;whiteSpace=wrap;html=1;" parent="LtpuGzz3zb0LntHNwfvB-6" vertex="1">
          <mxGeometry y="240" width="140" height="30" as="geometry" />
        </mxCell>
        <mxCell id="LtpuGzz3zb0LntHNwfvB-69" value="Telefonnummer" style="text;strokeColor=none;fillColor=none;align=left;verticalAlign=middle;spacingLeft=4;spacingRight=4;overflow=hidden;points=[[0,0.5],[1,0.5]];portConstraint=eastwest;rotatable=0;whiteSpace=wrap;html=1;" parent="LtpuGzz3zb0LntHNwfvB-6" vertex="1">
          <mxGeometry y="270" width="140" height="30" as="geometry" />
        </mxCell>
        <mxCell id="LtpuGzz3zb0LntHNwfvB-10" value="Våben" style="swimlane;fontStyle=0;childLayout=stackLayout;horizontal=1;startSize=30;horizontalStack=0;resizeParent=1;resizeParentMax=0;resizeLast=0;collapsible=1;marginBottom=0;whiteSpace=wrap;html=1;" parent="1" vertex="1">
          <mxGeometry x="660" y="280" width="140" height="120" as="geometry" />
        </mxCell>
        <mxCell id="LtpuGzz3zb0LntHNwfvB-11" value="Registreringsnummer" style="text;strokeColor=none;fillColor=none;align=left;verticalAlign=middle;spacingLeft=4;spacingRight=4;overflow=hidden;points=[[0,0.5],[1,0.5]];portConstraint=eastwest;rotatable=0;whiteSpace=wrap;html=1;" parent="LtpuGzz3zb0LntHNwfvB-10" vertex="1">
          <mxGeometry y="30" width="140" height="30" as="geometry" />
        </mxCell>
        <mxCell id="LtpuGzz3zb0LntHNwfvB-12" value="Status" style="text;strokeColor=none;fillColor=none;align=left;verticalAlign=middle;spacingLeft=4;spacingRight=4;overflow=hidden;points=[[0,0.5],[1,0.5]];portConstraint=eastwest;rotatable=0;whiteSpace=wrap;html=1;" parent="LtpuGzz3zb0LntHNwfvB-10" vertex="1">
          <mxGeometry y="60" width="140" height="30" as="geometry" />
        </mxCell>
        <mxCell id="LtpuGzz3zb0LntHNwfvB-151" value="RFID-tag ID" style="text;strokeColor=none;fillColor=none;align=left;verticalAlign=middle;spacingLeft=4;spacingRight=4;overflow=hidden;points=[[0,0.5],[1,0.5]];portConstraint=eastwest;rotatable=0;whiteSpace=wrap;html=1;" parent="LtpuGzz3zb0LntHNwfvB-10" vertex="1">
          <mxGeometry y="90" width="140" height="30" as="geometry" />
        </mxCell>
        <mxCell id="LtpuGzz3zb0LntHNwfvB-145" style="edgeStyle=orthogonalEdgeStyle;rounded=0;orthogonalLoop=1;jettySize=auto;html=1;endArrow=none;endFill=0;" parent="1" source="LtpuGzz3zb0LntHNwfvB-20" target="LtpuGzz3zb0LntHNwfvB-84" edge="1">
          <mxGeometry relative="1" as="geometry">
            <Array as="points">
              <mxPoint x="630" y="268" />
              <mxPoint x="590" y="268" />
              <mxPoint x="590" y="320" />
              <mxPoint x="530" y="320" />
            </Array>
          </mxGeometry>
        </mxCell>
        <mxCell id="LtpuGzz3zb0LntHNwfvB-146" value="Opretter udlån" style="edgeLabel;html=1;align=center;verticalAlign=middle;resizable=0;points=[];" parent="LtpuGzz3zb0LntHNwfvB-145" vertex="1" connectable="0">
          <mxGeometry x="0.0041" relative="1" as="geometry">
            <mxPoint x="20" y="-8" as="offset" />
          </mxGeometry>
        </mxCell>
        <mxCell id="LtpuGzz3zb0LntHNwfvB-147" value="0..*" style="edgeLabel;html=1;align=center;verticalAlign=middle;resizable=0;points=[];" parent="LtpuGzz3zb0LntHNwfvB-145" vertex="1" connectable="0">
          <mxGeometry x="0.8122" y="-1" relative="1" as="geometry">
            <mxPoint as="offset" />
          </mxGeometry>
        </mxCell>
        <mxCell id="LtpuGzz3zb0LntHNwfvB-148" style="edgeStyle=orthogonalEdgeStyle;rounded=0;orthogonalLoop=1;jettySize=auto;html=1;endArrow=none;endFill=0;" parent="1" source="LtpuGzz3zb0LntHNwfvB-20" target="LtpuGzz3zb0LntHNwfvB-106" edge="1">
          <mxGeometry relative="1" as="geometry">
            <Array as="points">
              <mxPoint x="840" y="90" />
              <mxPoint x="840" y="440" />
            </Array>
          </mxGeometry>
        </mxCell>
        <mxCell id="LtpuGzz3zb0LntHNwfvB-149" value="Opretter&amp;nbsp; tilladelser" style="edgeLabel;html=1;align=center;verticalAlign=middle;resizable=0;points=[];" parent="LtpuGzz3zb0LntHNwfvB-148" vertex="1" connectable="0">
          <mxGeometry x="0.0179" y="1" relative="1" as="geometry">
            <mxPoint x="-1" y="-65" as="offset" />
          </mxGeometry>
        </mxCell>
        <mxCell id="LtpuGzz3zb0LntHNwfvB-150" value="0..*" style="edgeLabel;html=1;align=center;verticalAlign=middle;resizable=0;points=[];" parent="LtpuGzz3zb0LntHNwfvB-148" vertex="1" connectable="0">
          <mxGeometry x="0.9393" relative="1" as="geometry">
            <mxPoint as="offset" />
          </mxGeometry>
        </mxCell>
        <mxCell id="LtpuGzz3zb0LntHNwfvB-20" value="System" style="swimlane;fontStyle=0;childLayout=stackLayout;horizontal=1;startSize=30;horizontalStack=0;resizeParent=1;resizeParentMax=0;resizeLast=0;collapsible=1;marginBottom=0;whiteSpace=wrap;html=1;" parent="1" vertex="1">
          <mxGeometry x="560" y="75" width="140" height="120" as="geometry" />
        </mxCell>
        <mxCell id="LtpuGzz3zb0LntHNwfvB-21" value="Hjemmeside" style="text;strokeColor=none;fillColor=none;align=left;verticalAlign=middle;spacingLeft=4;spacingRight=4;overflow=hidden;points=[[0,0.5],[1,0.5]];portConstraint=eastwest;rotatable=0;whiteSpace=wrap;html=1;" parent="LtpuGzz3zb0LntHNwfvB-20" vertex="1">
          <mxGeometry y="30" width="140" height="30" as="geometry" />
        </mxCell>
        <mxCell id="LtpuGzz3zb0LntHNwfvB-22" value="Skytters profiler" style="text;strokeColor=none;fillColor=none;align=left;verticalAlign=middle;spacingLeft=4;spacingRight=4;overflow=hidden;points=[[0,0.5],[1,0.5]];portConstraint=eastwest;rotatable=0;whiteSpace=wrap;html=1;" parent="LtpuGzz3zb0LntHNwfvB-20" vertex="1">
          <mxGeometry y="60" width="140" height="30" as="geometry" />
        </mxCell>
        <mxCell id="LtpuGzz3zb0LntHNwfvB-38" value="Våben" style="text;strokeColor=none;fillColor=none;align=left;verticalAlign=middle;spacingLeft=4;spacingRight=4;overflow=hidden;points=[[0,0.5],[1,0.5]];portConstraint=eastwest;rotatable=0;whiteSpace=wrap;html=1;" parent="LtpuGzz3zb0LntHNwfvB-20" vertex="1">
          <mxGeometry y="90" width="140" height="30" as="geometry" />
        </mxCell>
        <mxCell id="LtpuGzz3zb0LntHNwfvB-26" style="edgeStyle=orthogonalEdgeStyle;rounded=0;orthogonalLoop=1;jettySize=auto;html=1;endArrow=block;endFill=1;startArrow=block;startFill=1;" parent="1" source="LtpuGzz3zb0LntHNwfvB-23" target="LtpuGzz3zb0LntHNwfvB-21" edge="1">
          <mxGeometry relative="1" as="geometry" />
        </mxCell>
        <mxCell id="LtpuGzz3zb0LntHNwfvB-27" value="Læser fra og skriver til" style="edgeLabel;html=1;align=center;verticalAlign=middle;resizable=0;points=[];" parent="LtpuGzz3zb0LntHNwfvB-26" vertex="1" connectable="0">
          <mxGeometry x="-0.3667" relative="1" as="geometry">
            <mxPoint x="22" y="-15" as="offset" />
          </mxGeometry>
        </mxCell>
        <mxCell id="LtpuGzz3zb0LntHNwfvB-59" value="0..*" style="edgeLabel;html=1;align=center;verticalAlign=middle;resizable=0;points=[];" parent="LtpuGzz3zb0LntHNwfvB-26" vertex="1" connectable="0">
          <mxGeometry x="-0.7778" y="3" relative="1" as="geometry">
            <mxPoint as="offset" />
          </mxGeometry>
        </mxCell>
        <mxCell id="LtpuGzz3zb0LntHNwfvB-23" value="Hjemmeside" style="swimlane;fontStyle=0;childLayout=stackLayout;horizontal=1;startSize=30;horizontalStack=0;resizeParent=1;resizeParentMax=0;resizeLast=0;collapsible=1;marginBottom=0;whiteSpace=wrap;html=1;" parent="1" vertex="1">
          <mxGeometry x="285" y="90" width="140" height="60" as="geometry" />
        </mxCell>
        <mxCell id="LtpuGzz3zb0LntHNwfvB-24" value="URL" style="text;strokeColor=none;fillColor=none;align=left;verticalAlign=middle;spacingLeft=4;spacingRight=4;overflow=hidden;points=[[0,0.5],[1,0.5]];portConstraint=eastwest;rotatable=0;whiteSpace=wrap;html=1;" parent="LtpuGzz3zb0LntHNwfvB-23" vertex="1">
          <mxGeometry y="30" width="140" height="30" as="geometry" />
        </mxCell>
        <mxCell id="LtpuGzz3zb0LntHNwfvB-31" style="edgeStyle=orthogonalEdgeStyle;rounded=0;orthogonalLoop=1;jettySize=auto;html=1;endArrow=block;endFill=1;startArrow=block;startFill=1;" parent="1" source="LtpuGzz3zb0LntHNwfvB-22" target="LtpuGzz3zb0LntHNwfvB-6" edge="1">
          <mxGeometry relative="1" as="geometry">
            <Array as="points">
              <mxPoint x="480" y="150" />
              <mxPoint x="480" y="180" />
              <mxPoint x="320" y="180" />
            </Array>
          </mxGeometry>
        </mxCell>
        <mxCell id="LtpuGzz3zb0LntHNwfvB-62" value="Læser fra og skriver til" style="edgeLabel;html=1;align=center;verticalAlign=middle;resizable=0;points=[];" parent="LtpuGzz3zb0LntHNwfvB-31" vertex="1" connectable="0">
          <mxGeometry x="0.1235" y="1" relative="1" as="geometry">
            <mxPoint x="11" y="-11" as="offset" />
          </mxGeometry>
        </mxCell>
        <mxCell id="LtpuGzz3zb0LntHNwfvB-63" value="0..*" style="edgeLabel;html=1;align=center;verticalAlign=middle;resizable=0;points=[];" parent="LtpuGzz3zb0LntHNwfvB-31" vertex="1" connectable="0">
          <mxGeometry x="0.8882" y="1" relative="1" as="geometry">
            <mxPoint as="offset" />
          </mxGeometry>
        </mxCell>
        <mxCell id="LtpuGzz3zb0LntHNwfvB-32" value="Skytte" style="swimlane;fontStyle=0;childLayout=stackLayout;horizontal=1;startSize=30;horizontalStack=0;resizeParent=1;resizeParentMax=0;resizeLast=0;collapsible=1;marginBottom=0;whiteSpace=wrap;html=1;" parent="1" vertex="1">
          <mxGeometry x="60" y="320" width="140" height="240" as="geometry" />
        </mxCell>
        <mxCell id="LtpuGzz3zb0LntHNwfvB-33" value="Skyttenummer" style="text;strokeColor=none;fillColor=none;align=left;verticalAlign=middle;spacingLeft=4;spacingRight=4;overflow=hidden;points=[[0,0.5],[1,0.5]];portConstraint=eastwest;rotatable=0;whiteSpace=wrap;html=1;" parent="LtpuGzz3zb0LntHNwfvB-32" vertex="1">
          <mxGeometry y="30" width="140" height="30" as="geometry" />
        </mxCell>
        <mxCell id="LtpuGzz3zb0LntHNwfvB-34" value="Navn" style="text;strokeColor=none;fillColor=none;align=left;verticalAlign=middle;spacingLeft=4;spacingRight=4;overflow=hidden;points=[[0,0.5],[1,0.5]];portConstraint=eastwest;rotatable=0;whiteSpace=wrap;html=1;" parent="LtpuGzz3zb0LntHNwfvB-32" vertex="1">
          <mxGeometry y="60" width="140" height="30" as="geometry" />
        </mxCell>
        <mxCell id="LtpuGzz3zb0LntHNwfvB-35" value="Adresse" style="text;strokeColor=none;fillColor=none;align=left;verticalAlign=middle;spacingLeft=4;spacingRight=4;overflow=hidden;points=[[0,0.5],[1,0.5]];portConstraint=eastwest;rotatable=0;whiteSpace=wrap;html=1;" parent="LtpuGzz3zb0LntHNwfvB-32" vertex="1">
          <mxGeometry y="90" width="140" height="30" as="geometry" />
        </mxCell>
        <mxCell id="LtpuGzz3zb0LntHNwfvB-36" value="Fødelsdato" style="text;strokeColor=none;fillColor=none;align=left;verticalAlign=middle;spacingLeft=4;spacingRight=4;overflow=hidden;points=[[0,0.5],[1,0.5]];portConstraint=eastwest;rotatable=0;whiteSpace=wrap;html=1;" parent="LtpuGzz3zb0LntHNwfvB-32" vertex="1">
          <mxGeometry y="120" width="140" height="30" as="geometry" />
        </mxCell>
        <mxCell id="LtpuGzz3zb0LntHNwfvB-43" value="Profil" style="text;strokeColor=none;fillColor=none;align=left;verticalAlign=middle;spacingLeft=4;spacingRight=4;overflow=hidden;points=[[0,0.5],[1,0.5]];portConstraint=eastwest;rotatable=0;whiteSpace=wrap;html=1;" parent="LtpuGzz3zb0LntHNwfvB-32" vertex="1">
          <mxGeometry y="150" width="140" height="30" as="geometry" />
        </mxCell>
        <mxCell id="LtpuGzz3zb0LntHNwfvB-64" value="Email-adresse" style="text;strokeColor=none;fillColor=none;align=left;verticalAlign=middle;spacingLeft=4;spacingRight=4;overflow=hidden;points=[[0,0.5],[1,0.5]];portConstraint=eastwest;rotatable=0;whiteSpace=wrap;html=1;" parent="LtpuGzz3zb0LntHNwfvB-32" vertex="1">
          <mxGeometry y="180" width="140" height="30" as="geometry" />
        </mxCell>
        <mxCell id="LtpuGzz3zb0LntHNwfvB-65" value="Telefonnummer" style="text;strokeColor=none;fillColor=none;align=left;verticalAlign=middle;spacingLeft=4;spacingRight=4;overflow=hidden;points=[[0,0.5],[1,0.5]];portConstraint=eastwest;rotatable=0;whiteSpace=wrap;html=1;" parent="LtpuGzz3zb0LntHNwfvB-32" vertex="1">
          <mxGeometry y="210" width="140" height="30" as="geometry" />
        </mxCell>
        <mxCell id="LtpuGzz3zb0LntHNwfvB-104" style="edgeStyle=orthogonalEdgeStyle;rounded=0;orthogonalLoop=1;jettySize=auto;html=1;endArrow=none;endFill=0;" parent="1" source="LtpuGzz3zb0LntHNwfvB-39" target="LtpuGzz3zb0LntHNwfvB-84" edge="1">
          <mxGeometry relative="1" as="geometry" />
        </mxCell>
        <mxCell id="LtpuGzz3zb0LntHNwfvB-105" value="Kan se" style="edgeLabel;html=1;align=center;verticalAlign=middle;resizable=0;points=[];" parent="LtpuGzz3zb0LntHNwfvB-104" vertex="1" connectable="0">
          <mxGeometry x="0.1947" relative="1" as="geometry">
            <mxPoint y="-4" as="offset" />
          </mxGeometry>
        </mxCell>
        <mxCell id="LtpuGzz3zb0LntHNwfvB-39" value="Politiets system" style="swimlane;fontStyle=0;childLayout=stackLayout;horizontal=1;startSize=30;horizontalStack=0;resizeParent=1;resizeParentMax=0;resizeLast=0;collapsible=1;marginBottom=0;whiteSpace=wrap;html=1;" parent="1" vertex="1">
          <mxGeometry x="425" y="240" width="140" height="60" as="geometry" />
        </mxCell>
        <mxCell id="LtpuGzz3zb0LntHNwfvB-99" value="Profil" style="text;strokeColor=none;fillColor=none;align=left;verticalAlign=middle;spacingLeft=4;spacingRight=4;overflow=hidden;points=[[0,0.5],[1,0.5]];portConstraint=eastwest;rotatable=0;whiteSpace=wrap;html=1;" parent="LtpuGzz3zb0LntHNwfvB-39" vertex="1">
          <mxGeometry y="30" width="140" height="30" as="geometry" />
        </mxCell>
        <mxCell id="LtpuGzz3zb0LntHNwfvB-44" style="edgeStyle=orthogonalEdgeStyle;rounded=0;orthogonalLoop=1;jettySize=auto;html=1;endArrow=block;endFill=1;" parent="1" source="LtpuGzz3zb0LntHNwfvB-43" target="LtpuGzz3zb0LntHNwfvB-6" edge="1">
          <mxGeometry relative="1" as="geometry">
            <Array as="points">
              <mxPoint x="220" y="485" />
              <mxPoint x="220" y="270" />
            </Array>
          </mxGeometry>
        </mxCell>
        <mxCell id="LtpuGzz3zb0LntHNwfvB-45" value="Ejer" style="edgeLabel;html=1;align=center;verticalAlign=middle;resizable=0;points=[];" parent="LtpuGzz3zb0LntHNwfvB-44" vertex="1" connectable="0">
          <mxGeometry x="-0.3241" y="-4" relative="1" as="geometry">
            <mxPoint x="-4" y="-29" as="offset" />
          </mxGeometry>
        </mxCell>
        <mxCell id="LtpuGzz3zb0LntHNwfvB-46" value="0..1" style="edgeLabel;html=1;align=center;verticalAlign=middle;resizable=0;points=[];" parent="LtpuGzz3zb0LntHNwfvB-44" vertex="1" connectable="0">
          <mxGeometry x="0.5034" y="-4" relative="1" as="geometry">
            <mxPoint x="6" y="-21" as="offset" />
          </mxGeometry>
        </mxCell>
        <mxCell id="LtpuGzz3zb0LntHNwfvB-47" value="1" style="edgeLabel;html=1;align=center;verticalAlign=middle;resizable=0;points=[];" parent="LtpuGzz3zb0LntHNwfvB-44" vertex="1" connectable="0">
          <mxGeometry x="-0.8472" y="-3" relative="1" as="geometry">
            <mxPoint x="-12" as="offset" />
          </mxGeometry>
        </mxCell>
        <mxCell id="LtpuGzz3zb0LntHNwfvB-55" style="edgeStyle=orthogonalEdgeStyle;rounded=0;orthogonalLoop=1;jettySize=auto;html=1;endArrow=block;endFill=1;" parent="1" source="LtpuGzz3zb0LntHNwfvB-54" target="LtpuGzz3zb0LntHNwfvB-6" edge="1">
          <mxGeometry relative="1" as="geometry">
            <Array as="points">
              <mxPoint x="290" y="165" />
            </Array>
          </mxGeometry>
        </mxCell>
        <mxCell id="LtpuGzz3zb0LntHNwfvB-56" value="Ejer" style="edgeLabel;html=1;align=center;verticalAlign=middle;resizable=0;points=[];" parent="LtpuGzz3zb0LntHNwfvB-55" vertex="1" connectable="0">
          <mxGeometry x="0.1122" y="-1" relative="1" as="geometry">
            <mxPoint as="offset" />
          </mxGeometry>
        </mxCell>
        <mxCell id="LtpuGzz3zb0LntHNwfvB-57" value="1" style="edgeLabel;html=1;align=center;verticalAlign=middle;resizable=0;points=[];" parent="LtpuGzz3zb0LntHNwfvB-55" vertex="1" connectable="0">
          <mxGeometry x="-0.8634" y="1" relative="1" as="geometry">
            <mxPoint as="offset" />
          </mxGeometry>
        </mxCell>
        <mxCell id="LtpuGzz3zb0LntHNwfvB-58" value="0..1" style="edgeLabel;html=1;align=center;verticalAlign=middle;resizable=0;points=[];" parent="LtpuGzz3zb0LntHNwfvB-55" vertex="1" connectable="0">
          <mxGeometry x="0.8146" y="-1" relative="1" as="geometry">
            <mxPoint as="offset" />
          </mxGeometry>
        </mxCell>
        <mxCell id="LtpuGzz3zb0LntHNwfvB-70" style="edgeStyle=orthogonalEdgeStyle;rounded=0;orthogonalLoop=1;jettySize=auto;html=1;startArrow=block;startFill=1;endArrow=block;endFill=1;" parent="1" source="LtpuGzz3zb0LntHNwfvB-38" target="LtpuGzz3zb0LntHNwfvB-10" edge="1">
          <mxGeometry relative="1" as="geometry" />
        </mxCell>
        <mxCell id="LtpuGzz3zb0LntHNwfvB-71" value="Læser fra og skriver til" style="edgeLabel;html=1;align=center;verticalAlign=middle;resizable=0;points=[];" parent="LtpuGzz3zb0LntHNwfvB-70" vertex="1" connectable="0">
          <mxGeometry x="0.2346" y="1" relative="1" as="geometry">
            <mxPoint as="offset" />
          </mxGeometry>
        </mxCell>
        <mxCell id="LtpuGzz3zb0LntHNwfvB-72" value="0..*" style="edgeLabel;html=1;align=center;verticalAlign=middle;resizable=0;points=[];" parent="LtpuGzz3zb0LntHNwfvB-70" vertex="1" connectable="0">
          <mxGeometry x="0.7284" relative="1" as="geometry">
            <mxPoint as="offset" />
          </mxGeometry>
        </mxCell>
        <mxCell id="LtpuGzz3zb0LntHNwfvB-84" value="Udlånsregistrering" style="swimlane;fontStyle=0;childLayout=stackLayout;horizontal=1;startSize=30;horizontalStack=0;resizeParent=1;resizeParentMax=0;resizeLast=0;collapsible=1;marginBottom=0;whiteSpace=wrap;html=1;" parent="1" vertex="1">
          <mxGeometry x="425" y="340" width="140" height="150" as="geometry" />
        </mxCell>
        <mxCell id="LtpuGzz3zb0LntHNwfvB-85" value="Våben" style="text;strokeColor=none;fillColor=none;align=left;verticalAlign=middle;spacingLeft=4;spacingRight=4;overflow=hidden;points=[[0,0.5],[1,0.5]];portConstraint=eastwest;rotatable=0;whiteSpace=wrap;html=1;" parent="LtpuGzz3zb0LntHNwfvB-84" vertex="1">
          <mxGeometry y="30" width="140" height="30" as="geometry" />
        </mxCell>
        <mxCell id="LtpuGzz3zb0LntHNwfvB-86" value="Skytte" style="text;strokeColor=none;fillColor=none;align=left;verticalAlign=middle;spacingLeft=4;spacingRight=4;overflow=hidden;points=[[0,0.5],[1,0.5]];portConstraint=eastwest;rotatable=0;whiteSpace=wrap;html=1;" parent="LtpuGzz3zb0LntHNwfvB-84" vertex="1">
          <mxGeometry y="60" width="140" height="30" as="geometry" />
        </mxCell>
        <mxCell id="LtpuGzz3zb0LntHNwfvB-87" value="Udlånstidspunkt" style="text;strokeColor=none;fillColor=none;align=left;verticalAlign=middle;spacingLeft=4;spacingRight=4;overflow=hidden;points=[[0,0.5],[1,0.5]];portConstraint=eastwest;rotatable=0;whiteSpace=wrap;html=1;" parent="LtpuGzz3zb0LntHNwfvB-84" vertex="1">
          <mxGeometry y="90" width="140" height="30" as="geometry" />
        </mxCell>
        <mxCell id="LtpuGzz3zb0LntHNwfvB-88" value="Afleveringstidspunkt" style="text;strokeColor=none;fillColor=none;align=left;verticalAlign=middle;spacingLeft=4;spacingRight=4;overflow=hidden;points=[[0,0.5],[1,0.5]];portConstraint=eastwest;rotatable=0;whiteSpace=wrap;html=1;" parent="LtpuGzz3zb0LntHNwfvB-84" vertex="1">
          <mxGeometry y="120" width="140" height="30" as="geometry" />
        </mxCell>
        <mxCell id="LtpuGzz3zb0LntHNwfvB-89" style="edgeStyle=orthogonalEdgeStyle;rounded=0;orthogonalLoop=1;jettySize=auto;html=1;endArrow=none;endFill=0;" parent="1" source="LtpuGzz3zb0LntHNwfvB-85" target="LtpuGzz3zb0LntHNwfvB-10" edge="1">
          <mxGeometry relative="1" as="geometry">
            <Array as="points">
              <mxPoint x="610" y="385" />
              <mxPoint x="610" y="295" />
            </Array>
          </mxGeometry>
        </mxCell>
        <mxCell id="LtpuGzz3zb0LntHNwfvB-93" value="Indeholder våben" style="edgeLabel;html=1;align=center;verticalAlign=middle;resizable=0;points=[];" parent="LtpuGzz3zb0LntHNwfvB-89" vertex="1" connectable="0">
          <mxGeometry x="-0.3422" relative="1" as="geometry">
            <mxPoint y="-19" as="offset" />
          </mxGeometry>
        </mxCell>
        <mxCell id="LtpuGzz3zb0LntHNwfvB-96" value="0..*" style="edgeLabel;html=1;align=center;verticalAlign=middle;resizable=0;points=[];" parent="LtpuGzz3zb0LntHNwfvB-89" vertex="1" connectable="0">
          <mxGeometry x="-0.7985" y="-1" relative="1" as="geometry">
            <mxPoint as="offset" />
          </mxGeometry>
        </mxCell>
        <mxCell id="LtpuGzz3zb0LntHNwfvB-97" value="1" style="edgeLabel;html=1;align=center;verticalAlign=middle;resizable=0;points=[];" parent="LtpuGzz3zb0LntHNwfvB-89" vertex="1" connectable="0">
          <mxGeometry x="0.7504" y="-1" relative="1" as="geometry">
            <mxPoint as="offset" />
          </mxGeometry>
        </mxCell>
        <mxCell id="LtpuGzz3zb0LntHNwfvB-91" style="edgeStyle=orthogonalEdgeStyle;rounded=0;orthogonalLoop=1;jettySize=auto;html=1;endArrow=none;endFill=0;" parent="1" source="LtpuGzz3zb0LntHNwfvB-86" target="LtpuGzz3zb0LntHNwfvB-32" edge="1">
          <mxGeometry relative="1" as="geometry">
            <Array as="points">
              <mxPoint x="410" y="415" />
              <mxPoint x="410" y="580" />
              <mxPoint x="40" y="580" />
              <mxPoint x="40" y="340" />
            </Array>
          </mxGeometry>
        </mxCell>
        <mxCell id="LtpuGzz3zb0LntHNwfvB-92" value="Indeholder skytte" style="edgeLabel;html=1;align=center;verticalAlign=middle;resizable=0;points=[];" parent="LtpuGzz3zb0LntHNwfvB-91" vertex="1" connectable="0">
          <mxGeometry x="-0.129" y="1" relative="1" as="geometry">
            <mxPoint as="offset" />
          </mxGeometry>
        </mxCell>
        <mxCell id="LtpuGzz3zb0LntHNwfvB-94" value="1" style="edgeLabel;html=1;align=center;verticalAlign=middle;resizable=0;points=[];" parent="LtpuGzz3zb0LntHNwfvB-91" vertex="1" connectable="0">
          <mxGeometry x="0.9539" y="-1" relative="1" as="geometry">
            <mxPoint as="offset" />
          </mxGeometry>
        </mxCell>
        <mxCell id="LtpuGzz3zb0LntHNwfvB-95" value="0..*" style="edgeLabel;html=1;align=center;verticalAlign=middle;resizable=0;points=[];" parent="LtpuGzz3zb0LntHNwfvB-91" vertex="1" connectable="0">
          <mxGeometry x="-0.9677" y="-2" relative="1" as="geometry">
            <mxPoint as="offset" />
          </mxGeometry>
        </mxCell>
        <mxCell id="LtpuGzz3zb0LntHNwfvB-100" style="edgeStyle=orthogonalEdgeStyle;rounded=0;orthogonalLoop=1;jettySize=auto;html=1;endArrow=block;endFill=1;exitX=0;exitY=0.5;exitDx=0;exitDy=0;" parent="1" source="LtpuGzz3zb0LntHNwfvB-99" target="LtpuGzz3zb0LntHNwfvB-6" edge="1">
          <mxGeometry relative="1" as="geometry">
            <mxPoint x="480" y="605" as="sourcePoint" />
            <mxPoint x="560" y="390" as="targetPoint" />
            <Array as="points">
              <mxPoint x="410" y="285" />
              <mxPoint x="410" y="220" />
              <mxPoint x="370" y="220" />
            </Array>
          </mxGeometry>
        </mxCell>
        <mxCell id="LtpuGzz3zb0LntHNwfvB-101" value="Ejer" style="edgeLabel;html=1;align=center;verticalAlign=middle;resizable=0;points=[];" parent="LtpuGzz3zb0LntHNwfvB-100" vertex="1" connectable="0">
          <mxGeometry x="-0.3241" y="-4" relative="1" as="geometry">
            <mxPoint x="-4" y="-29" as="offset" />
          </mxGeometry>
        </mxCell>
        <mxCell id="LtpuGzz3zb0LntHNwfvB-102" value="0..1" style="edgeLabel;html=1;align=center;verticalAlign=middle;resizable=0;points=[];" parent="LtpuGzz3zb0LntHNwfvB-100" vertex="1" connectable="0">
          <mxGeometry x="0.5034" y="-4" relative="1" as="geometry">
            <mxPoint x="-7" y="14" as="offset" />
          </mxGeometry>
        </mxCell>
        <mxCell id="LtpuGzz3zb0LntHNwfvB-103" value="1" style="edgeLabel;html=1;align=center;verticalAlign=middle;resizable=0;points=[];" parent="LtpuGzz3zb0LntHNwfvB-100" vertex="1" connectable="0">
          <mxGeometry x="-0.8472" y="-3" relative="1" as="geometry">
            <mxPoint as="offset" />
          </mxGeometry>
        </mxCell>
        <mxCell id="LtpuGzz3zb0LntHNwfvB-106" value="Transporttilladelse" style="swimlane;fontStyle=0;childLayout=stackLayout;horizontal=1;startSize=30;horizontalStack=0;resizeParent=1;resizeParentMax=0;resizeLast=0;collapsible=1;marginBottom=0;whiteSpace=wrap;html=1;" parent="1" vertex="1">
          <mxGeometry x="630" y="430" width="140" height="270" as="geometry" />
        </mxCell>
        <mxCell id="LtpuGzz3zb0LntHNwfvB-107" value="Våben" style="text;strokeColor=none;fillColor=none;align=left;verticalAlign=middle;spacingLeft=4;spacingRight=4;overflow=hidden;points=[[0,0.5],[1,0.5]];portConstraint=eastwest;rotatable=0;whiteSpace=wrap;html=1;" parent="LtpuGzz3zb0LntHNwfvB-106" vertex="1">
          <mxGeometry y="30" width="140" height="30" as="geometry" />
        </mxCell>
        <mxCell id="LtpuGzz3zb0LntHNwfvB-108" value="Skytte" style="text;strokeColor=none;fillColor=none;align=left;verticalAlign=middle;spacingLeft=4;spacingRight=4;overflow=hidden;points=[[0,0.5],[1,0.5]];portConstraint=eastwest;rotatable=0;whiteSpace=wrap;html=1;" parent="LtpuGzz3zb0LntHNwfvB-106" vertex="1">
          <mxGeometry y="60" width="140" height="30" as="geometry" />
        </mxCell>
        <mxCell id="LtpuGzz3zb0LntHNwfvB-109" value="Udlånstidspunkt" style="text;strokeColor=none;fillColor=none;align=left;verticalAlign=middle;spacingLeft=4;spacingRight=4;overflow=hidden;points=[[0,0.5],[1,0.5]];portConstraint=eastwest;rotatable=0;whiteSpace=wrap;html=1;" parent="LtpuGzz3zb0LntHNwfvB-106" vertex="1">
          <mxGeometry y="90" width="140" height="30" as="geometry" />
        </mxCell>
        <mxCell id="LtpuGzz3zb0LntHNwfvB-110" value="Afleveringstidspunkt" style="text;strokeColor=none;fillColor=none;align=left;verticalAlign=middle;spacingLeft=4;spacingRight=4;overflow=hidden;points=[[0,0.5],[1,0.5]];portConstraint=eastwest;rotatable=0;whiteSpace=wrap;html=1;" parent="LtpuGzz3zb0LntHNwfvB-106" vertex="1">
          <mxGeometry y="120" width="140" height="30" as="geometry" />
        </mxCell>
        <mxCell id="LtpuGzz3zb0LntHNwfvB-111" value="Formål" style="text;strokeColor=none;fillColor=none;align=left;verticalAlign=middle;spacingLeft=4;spacingRight=4;overflow=hidden;points=[[0,0.5],[1,0.5]];portConstraint=eastwest;rotatable=0;whiteSpace=wrap;html=1;" parent="LtpuGzz3zb0LntHNwfvB-106" vertex="1">
          <mxGeometry y="150" width="140" height="30" as="geometry" />
        </mxCell>
        <mxCell id="LtpuGzz3zb0LntHNwfvB-112" value="Skytteforening" style="text;strokeColor=none;fillColor=none;align=left;verticalAlign=middle;spacingLeft=4;spacingRight=4;overflow=hidden;points=[[0,0.5],[1,0.5]];portConstraint=eastwest;rotatable=0;whiteSpace=wrap;html=1;" parent="LtpuGzz3zb0LntHNwfvB-106" vertex="1">
          <mxGeometry y="180" width="140" height="30" as="geometry" />
        </mxCell>
        <mxCell id="LtpuGzz3zb0LntHNwfvB-114" value="Skyttens CPRnr" style="text;strokeColor=none;fillColor=none;align=left;verticalAlign=middle;spacingLeft=4;spacingRight=4;overflow=hidden;points=[[0,0.5],[1,0.5]];portConstraint=eastwest;rotatable=0;whiteSpace=wrap;html=1;" parent="LtpuGzz3zb0LntHNwfvB-106" vertex="1">
          <mxGeometry y="210" width="140" height="30" as="geometry" />
        </mxCell>
        <mxCell id="LtpuGzz3zb0LntHNwfvB-113" value="Bestyrelsesmedlem" style="text;strokeColor=none;fillColor=none;align=left;verticalAlign=middle;spacingLeft=4;spacingRight=4;overflow=hidden;points=[[0,0.5],[1,0.5]];portConstraint=eastwest;rotatable=0;whiteSpace=wrap;html=1;" parent="LtpuGzz3zb0LntHNwfvB-106" vertex="1">
          <mxGeometry y="240" width="140" height="30" as="geometry" />
        </mxCell>
        <mxCell id="LtpuGzz3zb0LntHNwfvB-115" style="edgeStyle=orthogonalEdgeStyle;rounded=0;orthogonalLoop=1;jettySize=auto;html=1;endArrow=none;endFill=0;" parent="1" source="LtpuGzz3zb0LntHNwfvB-107" target="LtpuGzz3zb0LntHNwfvB-10" edge="1">
          <mxGeometry relative="1" as="geometry">
            <Array as="points">
              <mxPoint x="610" y="475" />
              <mxPoint x="610" y="410" />
              <mxPoint x="820" y="410" />
              <mxPoint x="820" y="290" />
            </Array>
          </mxGeometry>
        </mxCell>
        <mxCell id="LtpuGzz3zb0LntHNwfvB-116" value="Indeholder våben" style="edgeLabel;html=1;align=center;verticalAlign=middle;resizable=0;points=[];" parent="LtpuGzz3zb0LntHNwfvB-115" vertex="1" connectable="0">
          <mxGeometry x="0.0245" y="3" relative="1" as="geometry">
            <mxPoint x="-27" y="6" as="offset" />
          </mxGeometry>
        </mxCell>
        <mxCell id="LtpuGzz3zb0LntHNwfvB-117" value="1..*" style="edgeLabel;html=1;align=center;verticalAlign=middle;resizable=0;points=[];" parent="LtpuGzz3zb0LntHNwfvB-115" vertex="1" connectable="0">
          <mxGeometry x="0.8018" y="-3" relative="1" as="geometry">
            <mxPoint as="offset" />
          </mxGeometry>
        </mxCell>
        <mxCell id="LtpuGzz3zb0LntHNwfvB-118" value="0..1" style="edgeLabel;html=1;align=center;verticalAlign=middle;resizable=0;points=[];" parent="LtpuGzz3zb0LntHNwfvB-115" vertex="1" connectable="0">
          <mxGeometry x="-0.9129" relative="1" as="geometry">
            <mxPoint as="offset" />
          </mxGeometry>
        </mxCell>
        <mxCell id="LtpuGzz3zb0LntHNwfvB-123" value="Bestyrelsesmedlem" style="swimlane;fontStyle=0;childLayout=stackLayout;horizontal=1;startSize=30;horizontalStack=0;resizeParent=1;resizeParentMax=0;resizeLast=0;collapsible=1;marginBottom=0;whiteSpace=wrap;html=1;" parent="1" vertex="1">
          <mxGeometry x="40" y="610" width="140" height="150" as="geometry" />
        </mxCell>
        <mxCell id="LtpuGzz3zb0LntHNwfvB-124" value="Navn" style="text;strokeColor=none;fillColor=none;align=left;verticalAlign=middle;spacingLeft=4;spacingRight=4;overflow=hidden;points=[[0,0.5],[1,0.5]];portConstraint=eastwest;rotatable=0;whiteSpace=wrap;html=1;" parent="LtpuGzz3zb0LntHNwfvB-123" vertex="1">
          <mxGeometry y="30" width="140" height="30" as="geometry" />
        </mxCell>
        <mxCell id="LtpuGzz3zb0LntHNwfvB-125" value="Profil" style="text;strokeColor=none;fillColor=none;align=left;verticalAlign=middle;spacingLeft=4;spacingRight=4;overflow=hidden;points=[[0,0.5],[1,0.5]];portConstraint=eastwest;rotatable=0;whiteSpace=wrap;html=1;" parent="LtpuGzz3zb0LntHNwfvB-123" vertex="1">
          <mxGeometry y="60" width="140" height="30" as="geometry" />
        </mxCell>
        <mxCell id="LtpuGzz3zb0LntHNwfvB-126" value="Email-adresse" style="text;strokeColor=none;fillColor=none;align=left;verticalAlign=middle;spacingLeft=4;spacingRight=4;overflow=hidden;points=[[0,0.5],[1,0.5]];portConstraint=eastwest;rotatable=0;whiteSpace=wrap;html=1;" parent="LtpuGzz3zb0LntHNwfvB-123" vertex="1">
          <mxGeometry y="90" width="140" height="30" as="geometry" />
        </mxCell>
        <mxCell id="LtpuGzz3zb0LntHNwfvB-127" value="Telefonnummer" style="text;strokeColor=none;fillColor=none;align=left;verticalAlign=middle;spacingLeft=4;spacingRight=4;overflow=hidden;points=[[0,0.5],[1,0.5]];portConstraint=eastwest;rotatable=0;whiteSpace=wrap;html=1;" parent="LtpuGzz3zb0LntHNwfvB-123" vertex="1">
          <mxGeometry y="120" width="140" height="30" as="geometry" />
        </mxCell>
        <mxCell id="LtpuGzz3zb0LntHNwfvB-132" style="edgeStyle=orthogonalEdgeStyle;rounded=0;orthogonalLoop=1;jettySize=auto;html=1;endArrow=block;endFill=1;" parent="1" source="LtpuGzz3zb0LntHNwfvB-125" target="LtpuGzz3zb0LntHNwfvB-6" edge="1">
          <mxGeometry relative="1" as="geometry">
            <mxPoint x="190" y="495" as="sourcePoint" />
            <mxPoint x="260" y="280" as="targetPoint" />
            <Array as="points">
              <mxPoint x="10" y="675" />
              <mxPoint x="10" y="260" />
            </Array>
          </mxGeometry>
        </mxCell>
        <mxCell id="LtpuGzz3zb0LntHNwfvB-133" value="Ejer" style="edgeLabel;html=1;align=center;verticalAlign=middle;resizable=0;points=[];" parent="LtpuGzz3zb0LntHNwfvB-132" vertex="1" connectable="0">
          <mxGeometry x="-0.3241" y="-4" relative="1" as="geometry">
            <mxPoint x="-4" y="-184" as="offset" />
          </mxGeometry>
        </mxCell>
        <mxCell id="LtpuGzz3zb0LntHNwfvB-134" value="0..1" style="edgeLabel;html=1;align=center;verticalAlign=middle;resizable=0;points=[];" parent="LtpuGzz3zb0LntHNwfvB-132" vertex="1" connectable="0">
          <mxGeometry x="0.5034" y="-4" relative="1" as="geometry">
            <mxPoint x="150" y="-4" as="offset" />
          </mxGeometry>
        </mxCell>
        <mxCell id="LtpuGzz3zb0LntHNwfvB-135" value="1" style="edgeLabel;html=1;align=center;verticalAlign=middle;resizable=0;points=[];" parent="LtpuGzz3zb0LntHNwfvB-132" vertex="1" connectable="0">
          <mxGeometry x="-0.8472" y="-3" relative="1" as="geometry">
            <mxPoint x="7" y="17" as="offset" />
          </mxGeometry>
        </mxCell>
        <mxCell id="LtpuGzz3zb0LntHNwfvB-137" style="edgeStyle=orthogonalEdgeStyle;rounded=0;orthogonalLoop=1;jettySize=auto;html=1;endArrow=none;endFill=0;" parent="1" source="LtpuGzz3zb0LntHNwfvB-108" target="LtpuGzz3zb0LntHNwfvB-32" edge="1">
          <mxGeometry relative="1" as="geometry">
            <mxPoint x="435" y="425" as="sourcePoint" />
            <mxPoint x="70" y="350" as="targetPoint" />
            <Array as="points">
              <mxPoint x="420" y="505" />
              <mxPoint x="420" y="590" />
              <mxPoint x="30" y="590" />
              <mxPoint x="30" y="330" />
            </Array>
          </mxGeometry>
        </mxCell>
        <mxCell id="LtpuGzz3zb0LntHNwfvB-138" value="Indeholder skytte" style="edgeLabel;html=1;align=center;verticalAlign=middle;resizable=0;points=[];" parent="LtpuGzz3zb0LntHNwfvB-137" vertex="1" connectable="0">
          <mxGeometry x="-0.129" y="1" relative="1" as="geometry">
            <mxPoint as="offset" />
          </mxGeometry>
        </mxCell>
        <mxCell id="LtpuGzz3zb0LntHNwfvB-139" value="1" style="edgeLabel;html=1;align=center;verticalAlign=middle;resizable=0;points=[];" parent="LtpuGzz3zb0LntHNwfvB-137" vertex="1" connectable="0">
          <mxGeometry x="0.9539" y="-1" relative="1" as="geometry">
            <mxPoint as="offset" />
          </mxGeometry>
        </mxCell>
        <mxCell id="LtpuGzz3zb0LntHNwfvB-140" value="0..*" style="edgeLabel;html=1;align=center;verticalAlign=middle;resizable=0;points=[];" parent="LtpuGzz3zb0LntHNwfvB-137" vertex="1" connectable="0">
          <mxGeometry x="-0.9677" y="-2" relative="1" as="geometry">
            <mxPoint as="offset" />
          </mxGeometry>
        </mxCell>
        <mxCell id="LtpuGzz3zb0LntHNwfvB-141" style="edgeStyle=orthogonalEdgeStyle;rounded=0;orthogonalLoop=1;jettySize=auto;html=1;endArrow=none;endFill=0;" parent="1" source="LtpuGzz3zb0LntHNwfvB-113" target="LtpuGzz3zb0LntHNwfvB-123" edge="1">
          <mxGeometry relative="1" as="geometry">
            <Array as="points">
              <mxPoint x="405" y="685" />
              <mxPoint x="405" y="630" />
            </Array>
          </mxGeometry>
        </mxCell>
        <mxCell id="LtpuGzz3zb0LntHNwfvB-142" value="Indeholder bestyrelsesmedlem" style="edgeLabel;html=1;align=center;verticalAlign=middle;resizable=0;points=[];" parent="LtpuGzz3zb0LntHNwfvB-141" vertex="1" connectable="0">
          <mxGeometry x="0.1261" y="-3" relative="1" as="geometry">
            <mxPoint x="14" y="23" as="offset" />
          </mxGeometry>
        </mxCell>
        <mxCell id="LtpuGzz3zb0LntHNwfvB-143" value="1" style="edgeLabel;html=1;align=center;verticalAlign=middle;resizable=0;points=[];" parent="LtpuGzz3zb0LntHNwfvB-141" vertex="1" connectable="0">
          <mxGeometry x="0.9435" y="4" relative="1" as="geometry">
            <mxPoint as="offset" />
          </mxGeometry>
        </mxCell>
        <mxCell id="LtpuGzz3zb0LntHNwfvB-144" value="0..*" style="edgeLabel;html=1;align=center;verticalAlign=middle;resizable=0;points=[];" parent="LtpuGzz3zb0LntHNwfvB-141" vertex="1" connectable="0">
          <mxGeometry x="-0.8957" y="-1" relative="1" as="geometry">
            <mxPoint as="offset" />
          </mxGeometry>
        </mxCell>
        <mxCell id="6L1IftBzj0dIGSVwOvuM-1" value="&amp;lt;&amp;lt;Abstract&amp;gt;&amp;gt;&lt;br&gt;Profil" style="swimlane;fontStyle=1;align=center;verticalAlign=top;childLayout=stackLayout;horizontal=1;startSize=40;horizontalStack=0;resizeParent=1;resizeParentMax=0;resizeLast=0;collapsible=1;marginBottom=0;whiteSpace=wrap;html=1;" vertex="1" parent="1">
          <mxGeometry x="1489" y="220" width="210" height="288" as="geometry" />
        </mxCell>
        <mxCell id="6L1IftBzj0dIGSVwOvuM-22" value="Telefonnummer : PhoneNumber" style="text;strokeColor=none;fillColor=none;align=left;verticalAlign=middle;spacingLeft=4;spacingRight=4;overflow=hidden;points=[[0,0.5],[1,0.5]];portConstraint=eastwest;rotatable=0;whiteSpace=wrap;html=1;" vertex="1" parent="6L1IftBzj0dIGSVwOvuM-1">
          <mxGeometry y="40" width="210" height="30" as="geometry" />
        </mxCell>
        <mxCell id="6L1IftBzj0dIGSVwOvuM-21" value="Email-adresse : EmailAddress" style="text;strokeColor=none;fillColor=none;align=left;verticalAlign=middle;spacingLeft=4;spacingRight=4;overflow=hidden;points=[[0,0.5],[1,0.5]];portConstraint=eastwest;rotatable=0;whiteSpace=wrap;html=1;" vertex="1" parent="6L1IftBzj0dIGSVwOvuM-1">
          <mxGeometry y="70" width="210" height="30" as="geometry" />
        </mxCell>
        <mxCell id="6L1IftBzj0dIGSVwOvuM-20" value="Rettigheder : List&amp;lt;Access&amp;gt;" style="text;strokeColor=none;fillColor=none;align=left;verticalAlign=middle;spacingLeft=4;spacingRight=4;overflow=hidden;points=[[0,0.5],[1,0.5]];portConstraint=eastwest;rotatable=0;whiteSpace=wrap;html=1;" vertex="1" parent="6L1IftBzj0dIGSVwOvuM-1">
          <mxGeometry y="100" width="210" height="30" as="geometry" />
        </mxCell>
        <mxCell id="6L1IftBzj0dIGSVwOvuM-18" value="ID : GUID" style="text;strokeColor=none;fillColor=none;align=left;verticalAlign=middle;spacingLeft=4;spacingRight=4;overflow=hidden;points=[[0,0.5],[1,0.5]];portConstraint=eastwest;rotatable=0;whiteSpace=wrap;html=1;" vertex="1" parent="6L1IftBzj0dIGSVwOvuM-1">
          <mxGeometry y="130" width="210" height="30" as="geometry" />
        </mxCell>
        <mxCell id="6L1IftBzj0dIGSVwOvuM-17" value="Fødelsdato : DateTime" style="text;strokeColor=none;fillColor=none;align=left;verticalAlign=middle;spacingLeft=4;spacingRight=4;overflow=hidden;points=[[0,0.5],[1,0.5]];portConstraint=eastwest;rotatable=0;whiteSpace=wrap;html=1;" vertex="1" parent="6L1IftBzj0dIGSVwOvuM-1">
          <mxGeometry y="160" width="210" height="30" as="geometry" />
        </mxCell>
        <mxCell id="6L1IftBzj0dIGSVwOvuM-16" value="Adresse : Address" style="text;strokeColor=none;fillColor=none;align=left;verticalAlign=middle;spacingLeft=4;spacingRight=4;overflow=hidden;points=[[0,0.5],[1,0.5]];portConstraint=eastwest;rotatable=0;whiteSpace=wrap;html=1;" vertex="1" parent="6L1IftBzj0dIGSVwOvuM-1">
          <mxGeometry y="190" width="210" height="30" as="geometry" />
        </mxCell>
        <mxCell id="6L1IftBzj0dIGSVwOvuM-15" value="Navn : string" style="text;strokeColor=none;fillColor=none;align=left;verticalAlign=middle;spacingLeft=4;spacingRight=4;overflow=hidden;points=[[0,0.5],[1,0.5]];portConstraint=eastwest;rotatable=0;whiteSpace=wrap;html=1;" vertex="1" parent="6L1IftBzj0dIGSVwOvuM-1">
          <mxGeometry y="220" width="210" height="30" as="geometry" />
        </mxCell>
        <mxCell id="6L1IftBzj0dIGSVwOvuM-14" value="Skyttenummer : int" style="text;strokeColor=none;fillColor=none;align=left;verticalAlign=middle;spacingLeft=4;spacingRight=4;overflow=hidden;points=[[0,0.5],[1,0.5]];portConstraint=eastwest;rotatable=0;whiteSpace=wrap;html=1;" vertex="1" parent="6L1IftBzj0dIGSVwOvuM-1">
          <mxGeometry y="250" width="210" height="30" as="geometry" />
        </mxCell>
        <mxCell id="6L1IftBzj0dIGSVwOvuM-3" value="" style="line;strokeWidth=1;fillColor=none;align=left;verticalAlign=middle;spacingTop=-1;spacingLeft=3;spacingRight=3;rotatable=0;labelPosition=right;points=[];portConstraint=eastwest;strokeColor=inherit;" vertex="1" parent="6L1IftBzj0dIGSVwOvuM-1">
          <mxGeometry y="280" width="210" height="8" as="geometry" />
        </mxCell>
        <mxCell id="6L1IftBzj0dIGSVwOvuM-27" value="Hjemmeside" style="swimlane;fontStyle=1;align=center;verticalAlign=top;childLayout=stackLayout;horizontal=1;startSize=26;horizontalStack=0;resizeParent=1;resizeParentMax=0;resizeLast=0;collapsible=1;marginBottom=0;whiteSpace=wrap;html=1;" vertex="1" parent="1">
          <mxGeometry x="1520" y="30" width="101" height="94" as="geometry" />
        </mxCell>
        <mxCell id="6L1IftBzj0dIGSVwOvuM-28" value="URL : url" style="text;strokeColor=none;fillColor=none;align=left;verticalAlign=middle;spacingLeft=4;spacingRight=4;overflow=hidden;points=[[0,0.5],[1,0.5]];portConstraint=eastwest;rotatable=0;whiteSpace=wrap;html=1;" vertex="1" parent="6L1IftBzj0dIGSVwOvuM-27">
          <mxGeometry y="26" width="101" height="30" as="geometry" />
        </mxCell>
        <mxCell id="6L1IftBzj0dIGSVwOvuM-37" value="" style="line;strokeWidth=1;fillColor=none;align=left;verticalAlign=middle;spacingTop=-1;spacingLeft=3;spacingRight=3;rotatable=0;labelPosition=right;points=[];portConstraint=eastwest;strokeColor=inherit;" vertex="1" parent="6L1IftBzj0dIGSVwOvuM-27">
          <mxGeometry y="56" width="101" height="8" as="geometry" />
        </mxCell>
        <mxCell id="6L1IftBzj0dIGSVwOvuM-26" value="Vis(view)" style="text;strokeColor=none;fillColor=none;align=left;verticalAlign=middle;spacingLeft=4;spacingRight=4;overflow=hidden;points=[[0,0.5],[1,0.5]];portConstraint=eastwest;rotatable=0;whiteSpace=wrap;html=1;" vertex="1" parent="6L1IftBzj0dIGSVwOvuM-27">
          <mxGeometry y="64" width="101" height="30" as="geometry" />
        </mxCell>
        <mxCell id="6L1IftBzj0dIGSVwOvuM-38" value="Personale" style="swimlane;fontStyle=1;align=center;verticalAlign=top;childLayout=stackLayout;horizontal=1;startSize=26;horizontalStack=0;resizeParent=1;resizeParentMax=0;resizeLast=0;collapsible=1;marginBottom=0;whiteSpace=wrap;html=1;" vertex="1" parent="1">
          <mxGeometry x="1189" y="30" width="210" height="244" as="geometry" />
        </mxCell>
        <mxCell id="6L1IftBzj0dIGSVwOvuM-39" value="Navn : string" style="text;strokeColor=none;fillColor=none;align=left;verticalAlign=middle;spacingLeft=4;spacingRight=4;overflow=hidden;points=[[0,0.5],[1,0.5]];portConstraint=eastwest;rotatable=0;whiteSpace=wrap;html=1;" vertex="1" parent="6L1IftBzj0dIGSVwOvuM-38">
          <mxGeometry y="26" width="210" height="30" as="geometry" />
        </mxCell>
        <mxCell id="6L1IftBzj0dIGSVwOvuM-79" value="Profil : Profil" style="text;strokeColor=none;fillColor=none;align=left;verticalAlign=middle;spacingLeft=4;spacingRight=4;overflow=hidden;points=[[0,0.5],[1,0.5]];portConstraint=eastwest;rotatable=0;whiteSpace=wrap;html=1;" vertex="1" parent="6L1IftBzj0dIGSVwOvuM-38">
          <mxGeometry y="56" width="210" height="30" as="geometry" />
        </mxCell>
        <mxCell id="6L1IftBzj0dIGSVwOvuM-87" value="Telefonnummer : PhoneNumber" style="text;strokeColor=none;fillColor=none;align=left;verticalAlign=middle;spacingLeft=4;spacingRight=4;overflow=hidden;points=[[0,0.5],[1,0.5]];portConstraint=eastwest;rotatable=0;whiteSpace=wrap;html=1;" vertex="1" parent="6L1IftBzj0dIGSVwOvuM-38">
          <mxGeometry y="86" width="210" height="30" as="geometry" />
        </mxCell>
        <mxCell id="6L1IftBzj0dIGSVwOvuM-88" value="Email-adresse : EmailAddress" style="text;strokeColor=none;fillColor=none;align=left;verticalAlign=middle;spacingLeft=4;spacingRight=4;overflow=hidden;points=[[0,0.5],[1,0.5]];portConstraint=eastwest;rotatable=0;whiteSpace=wrap;html=1;" vertex="1" parent="6L1IftBzj0dIGSVwOvuM-38">
          <mxGeometry y="116" width="210" height="30" as="geometry" />
        </mxCell>
        <mxCell id="6L1IftBzj0dIGSVwOvuM-40" value="" style="line;strokeWidth=1;fillColor=none;align=left;verticalAlign=middle;spacingTop=-1;spacingLeft=3;spacingRight=3;rotatable=0;labelPosition=right;points=[];portConstraint=eastwest;strokeColor=inherit;" vertex="1" parent="6L1IftBzj0dIGSVwOvuM-38">
          <mxGeometry y="146" width="210" height="8" as="geometry" />
        </mxCell>
        <mxCell id="6L1IftBzj0dIGSVwOvuM-48" value="Vis(RFID-tag)" style="text;strokeColor=none;fillColor=none;align=left;verticalAlign=middle;spacingLeft=4;spacingRight=4;overflow=hidden;points=[[0,0.5],[1,0.5]];portConstraint=eastwest;rotatable=0;whiteSpace=wrap;html=1;" vertex="1" parent="6L1IftBzj0dIGSVwOvuM-38">
          <mxGeometry y="154" width="210" height="30" as="geometry" />
        </mxCell>
        <mxCell id="6L1IftBzj0dIGSVwOvuM-42" value="Vælg(våben)" style="text;strokeColor=none;fillColor=none;align=left;verticalAlign=middle;spacingLeft=4;spacingRight=4;overflow=hidden;points=[[0,0.5],[1,0.5]];portConstraint=eastwest;rotatable=0;whiteSpace=wrap;html=1;" vertex="1" parent="6L1IftBzj0dIGSVwOvuM-38">
          <mxGeometry y="184" width="210" height="30" as="geometry" />
        </mxCell>
        <mxCell id="6L1IftBzj0dIGSVwOvuM-41" value="Vælg(skytte)" style="text;strokeColor=none;fillColor=none;align=left;verticalAlign=middle;spacingLeft=4;spacingRight=4;overflow=hidden;points=[[0,0.5],[1,0.5]];portConstraint=eastwest;rotatable=0;whiteSpace=wrap;html=1;" vertex="1" parent="6L1IftBzj0dIGSVwOvuM-38">
          <mxGeometry y="214" width="210" height="30" as="geometry" />
        </mxCell>
        <mxCell id="6L1IftBzj0dIGSVwOvuM-43" value="System" style="swimlane;fontStyle=1;align=center;verticalAlign=top;childLayout=stackLayout;horizontal=1;startSize=26;horizontalStack=0;resizeParent=1;resizeParentMax=0;resizeLast=0;collapsible=1;marginBottom=0;whiteSpace=wrap;html=1;" vertex="1" parent="1">
          <mxGeometry x="1790" y="30" width="240" height="364" as="geometry" />
        </mxCell>
        <mxCell id="6L1IftBzj0dIGSVwOvuM-44" value="Hjemmeside" style="text;strokeColor=none;fillColor=none;align=left;verticalAlign=middle;spacingLeft=4;spacingRight=4;overflow=hidden;points=[[0,0.5],[1,0.5]];portConstraint=eastwest;rotatable=0;whiteSpace=wrap;html=1;" vertex="1" parent="6L1IftBzj0dIGSVwOvuM-43">
          <mxGeometry y="26" width="240" height="30" as="geometry" />
        </mxCell>
        <mxCell id="6L1IftBzj0dIGSVwOvuM-57" value="Våben : List&amp;lt;Våben&amp;gt;" style="text;strokeColor=none;fillColor=none;align=left;verticalAlign=middle;spacingLeft=4;spacingRight=4;overflow=hidden;points=[[0,0.5],[1,0.5]];portConstraint=eastwest;rotatable=0;whiteSpace=wrap;html=1;" vertex="1" parent="6L1IftBzj0dIGSVwOvuM-43">
          <mxGeometry y="56" width="240" height="30" as="geometry" />
        </mxCell>
        <mxCell id="6L1IftBzj0dIGSVwOvuM-58" value="Profiler : List&amp;lt;Profil&amp;gt;" style="text;strokeColor=none;fillColor=none;align=left;verticalAlign=middle;spacingLeft=4;spacingRight=4;overflow=hidden;points=[[0,0.5],[1,0.5]];portConstraint=eastwest;rotatable=0;whiteSpace=wrap;html=1;" vertex="1" parent="6L1IftBzj0dIGSVwOvuM-43">
          <mxGeometry y="86" width="240" height="30" as="geometry" />
        </mxCell>
        <mxCell id="6L1IftBzj0dIGSVwOvuM-66" value="Skytter : List&amp;lt;Skytte&amp;gt;" style="text;strokeColor=none;fillColor=none;align=left;verticalAlign=middle;spacingLeft=4;spacingRight=4;overflow=hidden;points=[[0,0.5],[1,0.5]];portConstraint=eastwest;rotatable=0;whiteSpace=wrap;html=1;" vertex="1" parent="6L1IftBzj0dIGSVwOvuM-43">
          <mxGeometry y="116" width="240" height="30" as="geometry" />
        </mxCell>
        <mxCell id="6L1IftBzj0dIGSVwOvuM-45" value="" style="line;strokeWidth=1;fillColor=none;align=left;verticalAlign=middle;spacingTop=-1;spacingLeft=3;spacingRight=3;rotatable=0;labelPosition=right;points=[];portConstraint=eastwest;strokeColor=inherit;" vertex="1" parent="6L1IftBzj0dIGSVwOvuM-43">
          <mxGeometry y="146" width="240" height="8" as="geometry" />
        </mxCell>
        <mxCell id="6L1IftBzj0dIGSVwOvuM-114" value="ForespørgVåben(RFID-tag)" style="text;strokeColor=none;fillColor=none;align=left;verticalAlign=middle;spacingLeft=4;spacingRight=4;overflow=hidden;points=[[0,0.5],[1,0.5]];portConstraint=eastwest;rotatable=0;whiteSpace=wrap;html=1;" vertex="1" parent="6L1IftBzj0dIGSVwOvuM-43">
          <mxGeometry y="154" width="240" height="30" as="geometry" />
        </mxCell>
        <mxCell id="6L1IftBzj0dIGSVwOvuM-46" value="VisVåben(Våben : view)" style="text;strokeColor=none;fillColor=none;align=left;verticalAlign=middle;spacingLeft=4;spacingRight=4;overflow=hidden;points=[[0,0.5],[1,0.5]];portConstraint=eastwest;rotatable=0;whiteSpace=wrap;html=1;" vertex="1" parent="6L1IftBzj0dIGSVwOvuM-43">
          <mxGeometry y="184" width="240" height="30" as="geometry" />
        </mxCell>
        <mxCell id="6L1IftBzj0dIGSVwOvuM-132" value="ForespørgBrugere(Våben)" style="text;strokeColor=none;fillColor=none;align=left;verticalAlign=middle;spacingLeft=4;spacingRight=4;overflow=hidden;points=[[0,0.5],[1,0.5]];portConstraint=eastwest;rotatable=0;whiteSpace=wrap;html=1;" vertex="1" parent="6L1IftBzj0dIGSVwOvuM-43">
          <mxGeometry y="214" width="240" height="30" as="geometry" />
        </mxCell>
        <mxCell id="6L1IftBzj0dIGSVwOvuM-47" value="VisSkytter(List&amp;lt;Skytte&amp;gt; : view)" style="text;strokeColor=none;fillColor=none;align=left;verticalAlign=middle;spacingLeft=4;spacingRight=4;overflow=hidden;points=[[0,0.5],[1,0.5]];portConstraint=eastwest;rotatable=0;whiteSpace=wrap;html=1;" vertex="1" parent="6L1IftBzj0dIGSVwOvuM-43">
          <mxGeometry y="244" width="240" height="30" as="geometry" />
        </mxCell>
        <mxCell id="6L1IftBzj0dIGSVwOvuM-122" value="RegistrerUdlån(Våben, Skytte)" style="text;strokeColor=none;fillColor=none;align=left;verticalAlign=middle;spacingLeft=4;spacingRight=4;overflow=hidden;points=[[0,0.5],[1,0.5]];portConstraint=eastwest;rotatable=0;whiteSpace=wrap;html=1;" vertex="1" parent="6L1IftBzj0dIGSVwOvuM-43">
          <mxGeometry y="274" width="240" height="30" as="geometry" />
        </mxCell>
        <mxCell id="6L1IftBzj0dIGSVwOvuM-148" value="VisBekræftelse(Udlånsregistrering : view)" style="text;strokeColor=none;fillColor=none;align=left;verticalAlign=middle;spacingLeft=4;spacingRight=4;overflow=hidden;points=[[0,0.5],[1,0.5]];portConstraint=eastwest;rotatable=0;whiteSpace=wrap;html=1;" vertex="1" parent="6L1IftBzj0dIGSVwOvuM-43">
          <mxGeometry y="304" width="240" height="30" as="geometry" />
        </mxCell>
        <mxCell id="6L1IftBzj0dIGSVwOvuM-149" value="OpdaterVåbenstatus(Våbenstatus)" style="text;strokeColor=none;fillColor=none;align=left;verticalAlign=middle;spacingLeft=4;spacingRight=4;overflow=hidden;points=[[0,0.5],[1,0.5]];portConstraint=eastwest;rotatable=0;whiteSpace=wrap;html=1;" vertex="1" parent="6L1IftBzj0dIGSVwOvuM-43">
          <mxGeometry y="334" width="240" height="30" as="geometry" />
        </mxCell>
        <mxCell id="6L1IftBzj0dIGSVwOvuM-49" value="Våben" style="swimlane;fontStyle=1;align=center;verticalAlign=top;childLayout=stackLayout;horizontal=1;startSize=26;horizontalStack=0;resizeParent=1;resizeParentMax=0;resizeLast=0;collapsible=1;marginBottom=0;whiteSpace=wrap;html=1;" vertex="1" parent="1">
          <mxGeometry x="2090" y="30" width="210" height="154" as="geometry" />
        </mxCell>
        <mxCell id="6L1IftBzj0dIGSVwOvuM-54" value="Registreringsnummer : string" style="text;strokeColor=none;fillColor=none;align=left;verticalAlign=middle;spacingLeft=4;spacingRight=4;overflow=hidden;points=[[0,0.5],[1,0.5]];portConstraint=eastwest;rotatable=0;whiteSpace=wrap;html=1;" vertex="1" parent="6L1IftBzj0dIGSVwOvuM-49">
          <mxGeometry y="26" width="210" height="30" as="geometry" />
        </mxCell>
        <mxCell id="6L1IftBzj0dIGSVwOvuM-56" value="RFID-tag ID : EPC-96" style="text;strokeColor=none;fillColor=none;align=left;verticalAlign=middle;spacingLeft=4;spacingRight=4;overflow=hidden;points=[[0,0.5],[1,0.5]];portConstraint=eastwest;rotatable=0;whiteSpace=wrap;html=1;" vertex="1" parent="6L1IftBzj0dIGSVwOvuM-49">
          <mxGeometry y="56" width="210" height="30" as="geometry" />
        </mxCell>
        <mxCell id="6L1IftBzj0dIGSVwOvuM-55" value="Status : Våbenstatus" style="text;strokeColor=none;fillColor=none;align=left;verticalAlign=middle;spacingLeft=4;spacingRight=4;overflow=hidden;points=[[0,0.5],[1,0.5]];portConstraint=eastwest;rotatable=0;whiteSpace=wrap;html=1;" vertex="1" parent="6L1IftBzj0dIGSVwOvuM-49">
          <mxGeometry y="86" width="210" height="30" as="geometry" />
        </mxCell>
        <mxCell id="6L1IftBzj0dIGSVwOvuM-51" value="" style="line;strokeWidth=1;fillColor=none;align=left;verticalAlign=middle;spacingTop=-1;spacingLeft=3;spacingRight=3;rotatable=0;labelPosition=right;points=[];portConstraint=eastwest;strokeColor=inherit;" vertex="1" parent="6L1IftBzj0dIGSVwOvuM-49">
          <mxGeometry y="116" width="210" height="8" as="geometry" />
        </mxCell>
        <mxCell id="6L1IftBzj0dIGSVwOvuM-123" value="Svar(Våben)" style="text;strokeColor=none;fillColor=none;align=left;verticalAlign=middle;spacingLeft=4;spacingRight=4;overflow=hidden;points=[[0,0.5],[1,0.5]];portConstraint=eastwest;rotatable=0;whiteSpace=wrap;html=1;" vertex="1" parent="6L1IftBzj0dIGSVwOvuM-49">
          <mxGeometry y="124" width="210" height="30" as="geometry" />
        </mxCell>
        <mxCell id="6L1IftBzj0dIGSVwOvuM-67" value="Skytte" style="swimlane;fontStyle=1;align=center;verticalAlign=top;childLayout=stackLayout;horizontal=1;startSize=26;horizontalStack=0;resizeParent=1;resizeParentMax=0;resizeLast=0;collapsible=1;marginBottom=0;whiteSpace=wrap;html=1;" vertex="1" parent="1">
          <mxGeometry x="1189" y="330" width="210" height="244" as="geometry" />
        </mxCell>
        <mxCell id="6L1IftBzj0dIGSVwOvuM-81" value="Telefonnummer : PhoneNumber" style="text;strokeColor=none;fillColor=none;align=left;verticalAlign=middle;spacingLeft=4;spacingRight=4;overflow=hidden;points=[[0,0.5],[1,0.5]];portConstraint=eastwest;rotatable=0;whiteSpace=wrap;html=1;" vertex="1" parent="6L1IftBzj0dIGSVwOvuM-67">
          <mxGeometry y="26" width="210" height="30" as="geometry" />
        </mxCell>
        <mxCell id="6L1IftBzj0dIGSVwOvuM-82" value="Email-adresse : EmailAddress" style="text;strokeColor=none;fillColor=none;align=left;verticalAlign=middle;spacingLeft=4;spacingRight=4;overflow=hidden;points=[[0,0.5],[1,0.5]];portConstraint=eastwest;rotatable=0;whiteSpace=wrap;html=1;" vertex="1" parent="6L1IftBzj0dIGSVwOvuM-67">
          <mxGeometry y="56" width="210" height="30" as="geometry" />
        </mxCell>
        <mxCell id="6L1IftBzj0dIGSVwOvuM-86" value="Skyttenummer : int" style="text;strokeColor=none;fillColor=none;align=left;verticalAlign=middle;spacingLeft=4;spacingRight=4;overflow=hidden;points=[[0,0.5],[1,0.5]];portConstraint=eastwest;rotatable=0;whiteSpace=wrap;html=1;" vertex="1" parent="6L1IftBzj0dIGSVwOvuM-67">
          <mxGeometry y="86" width="210" height="30" as="geometry" />
        </mxCell>
        <mxCell id="6L1IftBzj0dIGSVwOvuM-85" value="Navn : string" style="text;strokeColor=none;fillColor=none;align=left;verticalAlign=middle;spacingLeft=4;spacingRight=4;overflow=hidden;points=[[0,0.5],[1,0.5]];portConstraint=eastwest;rotatable=0;whiteSpace=wrap;html=1;" vertex="1" parent="6L1IftBzj0dIGSVwOvuM-67">
          <mxGeometry y="116" width="210" height="30" as="geometry" />
        </mxCell>
        <mxCell id="6L1IftBzj0dIGSVwOvuM-84" value="Adresse : Address" style="text;strokeColor=none;fillColor=none;align=left;verticalAlign=middle;spacingLeft=4;spacingRight=4;overflow=hidden;points=[[0,0.5],[1,0.5]];portConstraint=eastwest;rotatable=0;whiteSpace=wrap;html=1;" vertex="1" parent="6L1IftBzj0dIGSVwOvuM-67">
          <mxGeometry y="146" width="210" height="30" as="geometry" />
        </mxCell>
        <mxCell id="6L1IftBzj0dIGSVwOvuM-83" value="Fødelsdato : DateTime" style="text;strokeColor=none;fillColor=none;align=left;verticalAlign=middle;spacingLeft=4;spacingRight=4;overflow=hidden;points=[[0,0.5],[1,0.5]];portConstraint=eastwest;rotatable=0;whiteSpace=wrap;html=1;" vertex="1" parent="6L1IftBzj0dIGSVwOvuM-67">
          <mxGeometry y="176" width="210" height="30" as="geometry" />
        </mxCell>
        <mxCell id="6L1IftBzj0dIGSVwOvuM-80" value="Profil : Profil" style="text;strokeColor=none;fillColor=none;align=left;verticalAlign=middle;spacingLeft=4;spacingRight=4;overflow=hidden;points=[[0,0.5],[1,0.5]];portConstraint=eastwest;rotatable=0;whiteSpace=wrap;html=1;" vertex="1" parent="6L1IftBzj0dIGSVwOvuM-67">
          <mxGeometry y="206" width="210" height="30" as="geometry" />
        </mxCell>
        <mxCell id="6L1IftBzj0dIGSVwOvuM-71" value="" style="line;strokeWidth=1;fillColor=none;align=left;verticalAlign=middle;spacingTop=-1;spacingLeft=3;spacingRight=3;rotatable=0;labelPosition=right;points=[];portConstraint=eastwest;strokeColor=inherit;" vertex="1" parent="6L1IftBzj0dIGSVwOvuM-67">
          <mxGeometry y="236" width="210" height="8" as="geometry" />
        </mxCell>
        <mxCell id="6L1IftBzj0dIGSVwOvuM-72" value="Politiets system" style="swimlane;fontStyle=1;align=center;verticalAlign=top;childLayout=stackLayout;horizontal=1;startSize=26;horizontalStack=0;resizeParent=1;resizeParentMax=0;resizeLast=0;collapsible=1;marginBottom=0;whiteSpace=wrap;html=1;" vertex="1" parent="1">
          <mxGeometry x="1790" y="440" width="191" height="94" as="geometry" />
        </mxCell>
        <mxCell id="6L1IftBzj0dIGSVwOvuM-73" value="Profil : Profil" style="text;strokeColor=none;fillColor=none;align=left;verticalAlign=middle;spacingLeft=4;spacingRight=4;overflow=hidden;points=[[0,0.5],[1,0.5]];portConstraint=eastwest;rotatable=0;whiteSpace=wrap;html=1;" vertex="1" parent="6L1IftBzj0dIGSVwOvuM-72">
          <mxGeometry y="26" width="191" height="30" as="geometry" />
        </mxCell>
        <mxCell id="6L1IftBzj0dIGSVwOvuM-76" value="" style="line;strokeWidth=1;fillColor=none;align=left;verticalAlign=middle;spacingTop=-1;spacingLeft=3;spacingRight=3;rotatable=0;labelPosition=right;points=[];portConstraint=eastwest;strokeColor=inherit;" vertex="1" parent="6L1IftBzj0dIGSVwOvuM-72">
          <mxGeometry y="56" width="191" height="8" as="geometry" />
        </mxCell>
        <mxCell id="6L1IftBzj0dIGSVwOvuM-124" value="ForspørgUdlånsstatus()" style="text;strokeColor=none;fillColor=none;align=left;verticalAlign=middle;spacingLeft=4;spacingRight=4;overflow=hidden;points=[[0,0.5],[1,0.5]];portConstraint=eastwest;rotatable=0;whiteSpace=wrap;html=1;" vertex="1" parent="6L1IftBzj0dIGSVwOvuM-72">
          <mxGeometry y="64" width="191" height="30" as="geometry" />
        </mxCell>
        <mxCell id="6L1IftBzj0dIGSVwOvuM-89" value="Bestyrelsesmedlem" style="swimlane;fontStyle=1;align=center;verticalAlign=top;childLayout=stackLayout;horizontal=1;startSize=26;horizontalStack=0;resizeParent=1;resizeParentMax=0;resizeLast=0;collapsible=1;marginBottom=0;whiteSpace=wrap;html=1;" vertex="1" parent="1">
          <mxGeometry x="1190" y="630" width="210" height="154" as="geometry" />
        </mxCell>
        <mxCell id="6L1IftBzj0dIGSVwOvuM-90" value="Navn : string" style="text;strokeColor=none;fillColor=none;align=left;verticalAlign=middle;spacingLeft=4;spacingRight=4;overflow=hidden;points=[[0,0.5],[1,0.5]];portConstraint=eastwest;rotatable=0;whiteSpace=wrap;html=1;" vertex="1" parent="6L1IftBzj0dIGSVwOvuM-89">
          <mxGeometry y="26" width="210" height="30" as="geometry" />
        </mxCell>
        <mxCell id="6L1IftBzj0dIGSVwOvuM-91" value="Profil : Profil" style="text;strokeColor=none;fillColor=none;align=left;verticalAlign=middle;spacingLeft=4;spacingRight=4;overflow=hidden;points=[[0,0.5],[1,0.5]];portConstraint=eastwest;rotatable=0;whiteSpace=wrap;html=1;" vertex="1" parent="6L1IftBzj0dIGSVwOvuM-89">
          <mxGeometry y="56" width="210" height="30" as="geometry" />
        </mxCell>
        <mxCell id="6L1IftBzj0dIGSVwOvuM-92" value="Telefonnummer : PhoneNumber" style="text;strokeColor=none;fillColor=none;align=left;verticalAlign=middle;spacingLeft=4;spacingRight=4;overflow=hidden;points=[[0,0.5],[1,0.5]];portConstraint=eastwest;rotatable=0;whiteSpace=wrap;html=1;" vertex="1" parent="6L1IftBzj0dIGSVwOvuM-89">
          <mxGeometry y="86" width="210" height="30" as="geometry" />
        </mxCell>
        <mxCell id="6L1IftBzj0dIGSVwOvuM-93" value="Email-adresse : EmailAddress" style="text;strokeColor=none;fillColor=none;align=left;verticalAlign=middle;spacingLeft=4;spacingRight=4;overflow=hidden;points=[[0,0.5],[1,0.5]];portConstraint=eastwest;rotatable=0;whiteSpace=wrap;html=1;" vertex="1" parent="6L1IftBzj0dIGSVwOvuM-89">
          <mxGeometry y="116" width="210" height="30" as="geometry" />
        </mxCell>
        <mxCell id="6L1IftBzj0dIGSVwOvuM-94" value="" style="line;strokeWidth=1;fillColor=none;align=left;verticalAlign=middle;spacingTop=-1;spacingLeft=3;spacingRight=3;rotatable=0;labelPosition=right;points=[];portConstraint=eastwest;strokeColor=inherit;" vertex="1" parent="6L1IftBzj0dIGSVwOvuM-89">
          <mxGeometry y="146" width="210" height="8" as="geometry" />
        </mxCell>
        <mxCell id="6L1IftBzj0dIGSVwOvuM-98" value="Transporttilladelse" style="swimlane;fontStyle=1;align=center;verticalAlign=top;childLayout=stackLayout;horizontal=1;startSize=26;horizontalStack=0;resizeParent=1;resizeParentMax=0;resizeLast=0;collapsible=1;marginBottom=0;whiteSpace=wrap;html=1;" vertex="1" parent="1">
          <mxGeometry x="2080" y="300" width="240" height="274" as="geometry" />
        </mxCell>
        <mxCell id="6L1IftBzj0dIGSVwOvuM-103" value="Våben : Våben" style="text;strokeColor=none;fillColor=none;align=left;verticalAlign=middle;spacingLeft=4;spacingRight=4;overflow=hidden;points=[[0,0.5],[1,0.5]];portConstraint=eastwest;rotatable=0;whiteSpace=wrap;html=1;" vertex="1" parent="6L1IftBzj0dIGSVwOvuM-98">
          <mxGeometry y="26" width="240" height="30" as="geometry" />
        </mxCell>
        <mxCell id="6L1IftBzj0dIGSVwOvuM-104" value="Skytte&amp;nbsp; : Skytte" style="text;strokeColor=none;fillColor=none;align=left;verticalAlign=middle;spacingLeft=4;spacingRight=4;overflow=hidden;points=[[0,0.5],[1,0.5]];portConstraint=eastwest;rotatable=0;whiteSpace=wrap;html=1;" vertex="1" parent="6L1IftBzj0dIGSVwOvuM-98">
          <mxGeometry y="56" width="240" height="30" as="geometry" />
        </mxCell>
        <mxCell id="6L1IftBzj0dIGSVwOvuM-105" value="Udlånstidspunkt : DateTime" style="text;strokeColor=none;fillColor=none;align=left;verticalAlign=middle;spacingLeft=4;spacingRight=4;overflow=hidden;points=[[0,0.5],[1,0.5]];portConstraint=eastwest;rotatable=0;whiteSpace=wrap;html=1;" vertex="1" parent="6L1IftBzj0dIGSVwOvuM-98">
          <mxGeometry y="86" width="240" height="30" as="geometry" />
        </mxCell>
        <mxCell id="6L1IftBzj0dIGSVwOvuM-106" value="Afleveringstidspunkt : DateTime" style="text;strokeColor=none;fillColor=none;align=left;verticalAlign=middle;spacingLeft=4;spacingRight=4;overflow=hidden;points=[[0,0.5],[1,0.5]];portConstraint=eastwest;rotatable=0;whiteSpace=wrap;html=1;" vertex="1" parent="6L1IftBzj0dIGSVwOvuM-98">
          <mxGeometry y="116" width="240" height="30" as="geometry" />
        </mxCell>
        <mxCell id="6L1IftBzj0dIGSVwOvuM-110" value="Bestyrelsesmedlem :&amp;nbsp;Bestyrelsesmedlem" style="text;strokeColor=none;fillColor=none;align=left;verticalAlign=middle;spacingLeft=4;spacingRight=4;overflow=hidden;points=[[0,0.5],[1,0.5]];portConstraint=eastwest;rotatable=0;whiteSpace=wrap;html=1;" vertex="1" parent="6L1IftBzj0dIGSVwOvuM-98">
          <mxGeometry y="146" width="240" height="30" as="geometry" />
        </mxCell>
        <mxCell id="6L1IftBzj0dIGSVwOvuM-109" value="Skyttens CPRnr : CPRNumber" style="text;strokeColor=none;fillColor=none;align=left;verticalAlign=middle;spacingLeft=4;spacingRight=4;overflow=hidden;points=[[0,0.5],[1,0.5]];portConstraint=eastwest;rotatable=0;whiteSpace=wrap;html=1;" vertex="1" parent="6L1IftBzj0dIGSVwOvuM-98">
          <mxGeometry y="176" width="240" height="30" as="geometry" />
        </mxCell>
        <mxCell id="6L1IftBzj0dIGSVwOvuM-108" value="Skytteforening : Skytteforening" style="text;strokeColor=none;fillColor=none;align=left;verticalAlign=middle;spacingLeft=4;spacingRight=4;overflow=hidden;points=[[0,0.5],[1,0.5]];portConstraint=eastwest;rotatable=0;whiteSpace=wrap;html=1;" vertex="1" parent="6L1IftBzj0dIGSVwOvuM-98">
          <mxGeometry y="206" width="240" height="30" as="geometry" />
        </mxCell>
        <mxCell id="6L1IftBzj0dIGSVwOvuM-107" value="Formål : string" style="text;strokeColor=none;fillColor=none;align=left;verticalAlign=middle;spacingLeft=4;spacingRight=4;overflow=hidden;points=[[0,0.5],[1,0.5]];portConstraint=eastwest;rotatable=0;whiteSpace=wrap;html=1;" vertex="1" parent="6L1IftBzj0dIGSVwOvuM-98">
          <mxGeometry y="236" width="240" height="30" as="geometry" />
        </mxCell>
        <mxCell id="6L1IftBzj0dIGSVwOvuM-102" value="" style="line;strokeWidth=1;fillColor=none;align=left;verticalAlign=middle;spacingTop=-1;spacingLeft=3;spacingRight=3;rotatable=0;labelPosition=right;points=[];portConstraint=eastwest;strokeColor=inherit;" vertex="1" parent="6L1IftBzj0dIGSVwOvuM-98">
          <mxGeometry y="266" width="240" height="8" as="geometry" />
        </mxCell>
        <mxCell id="6L1IftBzj0dIGSVwOvuM-115" value="Udlånsregistrering" style="swimlane;fontStyle=1;align=center;verticalAlign=top;childLayout=stackLayout;horizontal=1;startSize=26;horizontalStack=0;resizeParent=1;resizeParentMax=0;resizeLast=0;collapsible=1;marginBottom=0;whiteSpace=wrap;html=1;" vertex="1" parent="1">
          <mxGeometry x="1790" y="600" width="210" height="154" as="geometry" />
        </mxCell>
        <mxCell id="6L1IftBzj0dIGSVwOvuM-118" value="Våben : Våben" style="text;strokeColor=none;fillColor=none;align=left;verticalAlign=middle;spacingLeft=4;spacingRight=4;overflow=hidden;points=[[0,0.5],[1,0.5]];portConstraint=eastwest;rotatable=0;whiteSpace=wrap;html=1;" vertex="1" parent="6L1IftBzj0dIGSVwOvuM-115">
          <mxGeometry y="26" width="210" height="30" as="geometry" />
        </mxCell>
        <mxCell id="6L1IftBzj0dIGSVwOvuM-119" value="Skytte : Skytte" style="text;strokeColor=none;fillColor=none;align=left;verticalAlign=middle;spacingLeft=4;spacingRight=4;overflow=hidden;points=[[0,0.5],[1,0.5]];portConstraint=eastwest;rotatable=0;whiteSpace=wrap;html=1;" vertex="1" parent="6L1IftBzj0dIGSVwOvuM-115">
          <mxGeometry y="56" width="210" height="30" as="geometry" />
        </mxCell>
        <mxCell id="6L1IftBzj0dIGSVwOvuM-120" value="Udlånstidspunkt : DateTime" style="text;strokeColor=none;fillColor=none;align=left;verticalAlign=middle;spacingLeft=4;spacingRight=4;overflow=hidden;points=[[0,0.5],[1,0.5]];portConstraint=eastwest;rotatable=0;whiteSpace=wrap;html=1;" vertex="1" parent="6L1IftBzj0dIGSVwOvuM-115">
          <mxGeometry y="86" width="210" height="30" as="geometry" />
        </mxCell>
        <mxCell id="6L1IftBzj0dIGSVwOvuM-121" value="Afleveringstidspunkt : DateTime" style="text;strokeColor=none;fillColor=none;align=left;verticalAlign=middle;spacingLeft=4;spacingRight=4;overflow=hidden;points=[[0,0.5],[1,0.5]];portConstraint=eastwest;rotatable=0;whiteSpace=wrap;html=1;" vertex="1" parent="6L1IftBzj0dIGSVwOvuM-115">
          <mxGeometry y="116" width="210" height="30" as="geometry" />
        </mxCell>
        <mxCell id="6L1IftBzj0dIGSVwOvuM-117" value="" style="line;strokeWidth=1;fillColor=none;align=left;verticalAlign=middle;spacingTop=-1;spacingLeft=3;spacingRight=3;rotatable=0;labelPosition=right;points=[];portConstraint=eastwest;strokeColor=inherit;" vertex="1" parent="6L1IftBzj0dIGSVwOvuM-115">
          <mxGeometry y="146" width="210" height="8" as="geometry" />
        </mxCell>
        <mxCell id="6L1IftBzj0dIGSVwOvuM-126" value="Brugere af våben" style="swimlane;fontStyle=1;align=center;verticalAlign=top;childLayout=stackLayout;horizontal=1;startSize=26;horizontalStack=0;resizeParent=1;resizeParentMax=0;resizeLast=0;collapsible=1;marginBottom=0;whiteSpace=wrap;html=1;" vertex="1" parent="1">
          <mxGeometry x="1489" y="600" width="210" height="154" as="geometry" />
        </mxCell>
        <mxCell id="6L1IftBzj0dIGSVwOvuM-127" value="Våben : Våben" style="text;strokeColor=none;fillColor=none;align=left;verticalAlign=middle;spacingLeft=4;spacingRight=4;overflow=hidden;points=[[0,0.5],[1,0.5]];portConstraint=eastwest;rotatable=0;whiteSpace=wrap;html=1;" vertex="1" parent="6L1IftBzj0dIGSVwOvuM-126">
          <mxGeometry y="26" width="210" height="30" as="geometry" />
        </mxCell>
        <mxCell id="6L1IftBzj0dIGSVwOvuM-128" value="Skytte&amp;nbsp; : Skytte" style="text;strokeColor=none;fillColor=none;align=left;verticalAlign=middle;spacingLeft=4;spacingRight=4;overflow=hidden;points=[[0,0.5],[1,0.5]];portConstraint=eastwest;rotatable=0;whiteSpace=wrap;html=1;" vertex="1" parent="6L1IftBzj0dIGSVwOvuM-126">
          <mxGeometry y="56" width="210" height="30" as="geometry" />
        </mxCell>
        <mxCell id="6L1IftBzj0dIGSVwOvuM-130" value="SidsteUdlån : DateTime" style="text;strokeColor=none;fillColor=none;align=left;verticalAlign=middle;spacingLeft=4;spacingRight=4;overflow=hidden;points=[[0,0.5],[1,0.5]];portConstraint=eastwest;rotatable=0;whiteSpace=wrap;html=1;" vertex="1" parent="6L1IftBzj0dIGSVwOvuM-126">
          <mxGeometry y="86" width="210" height="30" as="geometry" />
        </mxCell>
        <mxCell id="6L1IftBzj0dIGSVwOvuM-131" value="" style="line;strokeWidth=1;fillColor=none;align=left;verticalAlign=middle;spacingTop=-1;spacingLeft=3;spacingRight=3;rotatable=0;labelPosition=right;points=[];portConstraint=eastwest;strokeColor=inherit;" vertex="1" parent="6L1IftBzj0dIGSVwOvuM-126">
          <mxGeometry y="116" width="210" height="8" as="geometry" />
        </mxCell>
        <mxCell id="6L1IftBzj0dIGSVwOvuM-133" value="Svar(Skytte)" style="text;strokeColor=none;fillColor=none;align=left;verticalAlign=middle;spacingLeft=4;spacingRight=4;overflow=hidden;points=[[0,0.5],[1,0.5]];portConstraint=eastwest;rotatable=0;whiteSpace=wrap;html=1;" vertex="1" parent="6L1IftBzj0dIGSVwOvuM-126">
          <mxGeometry y="124" width="210" height="30" as="geometry" />
        </mxCell>
        <mxCell id="6L1IftBzj0dIGSVwOvuM-134" value="&amp;lt;&amp;lt;Enum&amp;gt;&amp;gt;&lt;br&gt;Skytteforening" style="swimlane;fontStyle=1;align=center;verticalAlign=top;childLayout=stackLayout;horizontal=1;startSize=40;horizontalStack=0;resizeParent=1;resizeParentMax=0;resizeLast=0;collapsible=1;marginBottom=0;whiteSpace=wrap;html=1;" vertex="1" parent="1">
          <mxGeometry x="2099.5" y="646" width="220.5" height="108" as="geometry" />
        </mxCell>
        <mxCell id="6L1IftBzj0dIGSVwOvuM-135" value="Taarup-Kvols-Løgstrup Skytteforening" style="text;strokeColor=none;fillColor=none;align=left;verticalAlign=middle;spacingLeft=4;spacingRight=4;overflow=hidden;points=[[0,0.5],[1,0.5]];portConstraint=eastwest;rotatable=0;whiteSpace=wrap;html=1;" vertex="1" parent="6L1IftBzj0dIGSVwOvuM-134">
          <mxGeometry y="40" width="220.5" height="30" as="geometry" />
        </mxCell>
        <mxCell id="6L1IftBzj0dIGSVwOvuM-141" value="Viborg Skytteforening" style="text;strokeColor=none;fillColor=none;align=left;verticalAlign=middle;spacingLeft=4;spacingRight=4;overflow=hidden;points=[[0,0.5],[1,0.5]];portConstraint=eastwest;rotatable=0;whiteSpace=wrap;html=1;" vertex="1" parent="6L1IftBzj0dIGSVwOvuM-134">
          <mxGeometry y="70" width="220.5" height="30" as="geometry" />
        </mxCell>
        <mxCell id="6L1IftBzj0dIGSVwOvuM-136" value="" style="line;strokeWidth=1;fillColor=none;align=left;verticalAlign=middle;spacingTop=-1;spacingLeft=3;spacingRight=3;rotatable=0;labelPosition=right;points=[];portConstraint=eastwest;strokeColor=inherit;" vertex="1" parent="6L1IftBzj0dIGSVwOvuM-134">
          <mxGeometry y="100" width="220.5" height="8" as="geometry" />
        </mxCell>
        <mxCell id="6L1IftBzj0dIGSVwOvuM-142" value="&amp;lt;&amp;lt;Enum&amp;gt;&amp;gt;&lt;br&gt;Våbenstatus" style="swimlane;fontStyle=1;align=center;verticalAlign=top;childLayout=stackLayout;horizontal=1;startSize=40;horizontalStack=0;resizeParent=1;resizeParentMax=0;resizeLast=0;collapsible=1;marginBottom=0;whiteSpace=wrap;html=1;" vertex="1" parent="1">
          <mxGeometry x="2360" y="124" width="220.5" height="168" as="geometry" />
        </mxCell>
        <mxCell id="6L1IftBzj0dIGSVwOvuM-143" value="Ukendt" style="text;strokeColor=none;fillColor=none;align=left;verticalAlign=middle;spacingLeft=4;spacingRight=4;overflow=hidden;points=[[0,0.5],[1,0.5]];portConstraint=eastwest;rotatable=0;whiteSpace=wrap;html=1;" vertex="1" parent="6L1IftBzj0dIGSVwOvuM-142">
          <mxGeometry y="40" width="220.5" height="30" as="geometry" />
        </mxCell>
        <mxCell id="6L1IftBzj0dIGSVwOvuM-144" value="I boksen" style="text;strokeColor=none;fillColor=none;align=left;verticalAlign=middle;spacingLeft=4;spacingRight=4;overflow=hidden;points=[[0,0.5],[1,0.5]];portConstraint=eastwest;rotatable=0;whiteSpace=wrap;html=1;" vertex="1" parent="6L1IftBzj0dIGSVwOvuM-142">
          <mxGeometry y="70" width="220.5" height="30" as="geometry" />
        </mxCell>
        <mxCell id="6L1IftBzj0dIGSVwOvuM-146" value="Udlånt" style="text;strokeColor=none;fillColor=none;align=left;verticalAlign=middle;spacingLeft=4;spacingRight=4;overflow=hidden;points=[[0,0.5],[1,0.5]];portConstraint=eastwest;rotatable=0;whiteSpace=wrap;html=1;" vertex="1" parent="6L1IftBzj0dIGSVwOvuM-142">
          <mxGeometry y="100" width="220.5" height="30" as="geometry" />
        </mxCell>
        <mxCell id="6L1IftBzj0dIGSVwOvuM-147" value="Transporttilladelse genereret" style="text;strokeColor=none;fillColor=none;align=left;verticalAlign=middle;spacingLeft=4;spacingRight=4;overflow=hidden;points=[[0,0.5],[1,0.5]];portConstraint=eastwest;rotatable=0;whiteSpace=wrap;html=1;" vertex="1" parent="6L1IftBzj0dIGSVwOvuM-142">
          <mxGeometry y="130" width="220.5" height="30" as="geometry" />
        </mxCell>
        <mxCell id="6L1IftBzj0dIGSVwOvuM-145" value="" style="line;strokeWidth=1;fillColor=none;align=left;verticalAlign=middle;spacingTop=-1;spacingLeft=3;spacingRight=3;rotatable=0;labelPosition=right;points=[];portConstraint=eastwest;strokeColor=inherit;" vertex="1" parent="6L1IftBzj0dIGSVwOvuM-142">
          <mxGeometry y="160" width="220.5" height="8" as="geometry" />
        </mxCell>
      </root>
    </mxGraphModel>
  </diagram>
</mxfile>
